<svg width="100" height="88" viewBox="0 0 100 88" fill="none" xmlns="http://www.w3.org/2000/svg">
<path d="M93.4036 19.1984L83.2385 59.8595H27.7825L17.6174 19.1984H93.4036Z" fill="#359EA2" stroke="#359EA2" stroke-width="5"/>
<path d="M3 3H10.9907L14.4153 16.6983M14.4153 16.6983L25.8306 62.3595H85.19L96.6053 16.6983H14.4153Z" fill="#359EA2"/>
<path d="M3 3H10.9907L14.4153 16.6983M14.4153 16.6983L25.8306 62.3595H85.19L96.6053 16.6983H14.4153Z" stroke="#359EA2" stroke-width="5" stroke-linecap="round" stroke-linejoin="round"/>
<path d="M25.8306 85.19C29.6133 85.19 32.6798 82.1236 32.6798 78.3409C32.6798 74.5582 29.6133 71.4917 25.8306 71.4917C22.0479 71.4917 18.9814 74.5582 18.9814 78.3409C18.9814 82.1236 22.0479 85.19 25.8306 85.19Z" fill="#359EA2" stroke="#359EA2" stroke-width="5" stroke-linecap="round" stroke-linejoin="round"/>
<path d="M85.19 85.19C88.9727 85.19 92.0392 82.1236 92.0392 78.3409C92.0392 74.5582 88.9727 71.4917 85.19 71.4917C81.4073 71.4917 78.3408 74.5582 78.3408 78.3409C78.3408 82.1236 81.4073 85.19 85.19 85.19Z" fill="#359EA2" stroke="#359EA2" stroke-width="5" stroke-linecap="round" stroke-linejoin="round"/>
</svg>
