<svg width="70" height="70" viewBox="0 0 70 70" fill="none" xmlns="http://www.w3.org/2000/svg">
<path fill-rule="evenodd" clip-rule="evenodd" d="M35 70C44.2826 70 53.185 66.3125 59.7487 59.7487C66.3125 53.185 70 44.2826 70 35C70 25.7174 66.3125 16.815 59.7487 10.2513C53.185 3.68749 44.2826 0 35 0C25.7174 0 16.815 3.68749 10.2513 10.2513C3.68749 16.815 0 25.7174 0 35C0 44.2826 3.68749 53.185 10.2513 59.7487C16.815 66.3125 25.7174 70 35 70ZM54.22 26.045C54.8287 25.258 55.0998 24.2614 54.9736 23.2745C54.8475 22.2876 54.3345 21.3912 53.5475 20.7825C52.7605 20.1738 51.7639 19.9027 50.777 20.0289C49.7901 20.155 48.8937 20.668 48.285 21.455L29.785 45.405L21.535 36.24C21.2087 35.8624 20.8103 35.5536 20.3632 35.3319C19.9161 35.1102 19.4292 34.98 18.9311 34.9489C18.433 34.9178 17.9337 34.9864 17.4625 35.1508C16.9913 35.3151 16.5576 35.5719 16.1868 35.906C15.8161 36.2401 15.5158 36.6449 15.3035 37.0966C15.0913 37.5482 14.9713 38.0377 14.9506 38.5364C14.9299 39.035 15.009 39.5328 15.1832 40.0005C15.3574 40.4681 15.6232 40.8964 15.965 41.26L27.215 53.76C27.5824 54.1675 28.0348 54.4895 28.5403 54.7031C29.0457 54.9167 29.5919 55.0168 30.1402 54.9963C30.6886 54.9758 31.2258 54.8352 31.7138 54.5844C32.2019 54.3337 32.629 53.9788 32.965 53.545L54.22 26.045Z" fill="#359EA2"/>
</svg>
