<svg width="528" height="604" viewBox="0 0 528 604" fill="none" xmlns="http://www.w3.org/2000/svg">
<path d="M449.964 342.991C346.547 283.334 179.427 283.334 76.6766 342.991C-26.0733 402.648 -25.4767 499.514 77.9867 559.217C181.45 618.921 348.524 618.932 451.274 559.217C554.024 499.502 553.428 402.706 449.964 342.991Z" fill="#F5F5F5"/>
<path d="M332.056 411.552C294.437 389.83 233.646 389.83 196.273 411.552C158.9 433.274 159.087 468.495 196.706 490.217C234.324 511.939 295.128 511.939 332.501 490.217C369.874 468.495 369.687 433.286 332.056 411.552Z" fill="#E6E6E6"/>
<path d="M149.128 290.973H149.046C148.743 290.951 148.458 290.821 148.243 290.606C148.028 290.392 147.898 290.106 147.876 289.803L143.712 235.761L146.227 235.563L149.736 281.054L167.75 198.388C167.806 198.143 167.934 197.92 168.117 197.747C168.301 197.574 168.531 197.459 168.779 197.417C169.028 197.372 169.284 197.404 169.514 197.508C169.744 197.613 169.937 197.785 170.066 198.002L203.041 252.559L224.985 152.254C225.044 151.996 225.182 151.763 225.379 151.587C225.575 151.411 225.822 151.301 226.085 151.271C226.347 151.241 226.612 151.294 226.841 151.425C227.07 151.555 227.252 151.756 227.36 151.996L259.504 221.444L280.314 159.448L282.653 160.255L260.826 225.257C260.745 225.504 260.589 225.719 260.379 225.873C260.169 226.026 259.916 226.109 259.656 226.111C259.412 226.116 259.172 226.05 258.964 225.922C258.756 225.793 258.591 225.607 258.487 225.386L226.588 156.465L204.819 256.173C204.769 256.426 204.642 256.658 204.456 256.837C204.27 257.016 204.034 257.134 203.779 257.175C203.525 257.215 203.263 257.177 203.031 257.065C202.799 256.953 202.606 256.772 202.479 256.548L169.586 202.026L150.426 289.991C150.36 290.281 150.194 290.539 149.956 290.719C149.719 290.899 149.425 290.989 149.128 290.973Z" fill="#359EA2"/>
<g opacity="0.2">
<path d="M149.129 290.973H149.047C148.744 290.951 148.459 290.821 148.244 290.606C148.029 290.391 147.899 290.106 147.877 289.803L143.713 235.761L146.228 235.562L149.737 281.053L167.751 198.388C167.807 198.142 167.935 197.919 168.119 197.746C168.302 197.574 168.532 197.459 168.78 197.417C169.029 197.372 169.285 197.403 169.515 197.508C169.745 197.612 169.938 197.785 170.067 198.002L203.042 252.558L224.986 152.253C225.045 151.996 225.183 151.763 225.38 151.587C225.577 151.411 225.823 151.3 226.086 151.271C226.348 151.24 226.613 151.294 226.842 151.424C227.071 151.555 227.253 151.755 227.361 151.996L259.505 221.443L280.315 159.447L282.654 160.254L260.827 225.257C260.746 225.504 260.59 225.719 260.38 225.872C260.17 226.025 259.917 226.109 259.657 226.11C259.413 226.116 259.173 226.05 258.965 225.921C258.757 225.792 258.592 225.606 258.488 225.385L226.589 156.464L204.82 256.173C204.77 256.426 204.643 256.657 204.457 256.836C204.271 257.015 204.035 257.133 203.78 257.174C203.526 257.215 203.265 257.177 203.032 257.064C202.8 256.952 202.607 256.772 202.481 256.547L169.587 202.026L150.427 289.99C150.361 290.281 150.195 290.539 149.957 290.718C149.72 290.898 149.426 290.988 149.129 290.973Z" fill="black"/>
</g>
<path d="M226.214 160.16C229.477 160.16 232.121 157.516 232.121 154.253C232.121 150.991 229.477 148.346 226.214 148.346C222.952 148.346 220.307 150.991 220.307 154.253C220.307 157.516 222.952 160.16 226.214 160.16Z" fill="#359EA2"/>
<path opacity="0.3" d="M237.148 154.401C237.24 148.355 232.414 143.378 226.368 143.286C220.322 143.193 215.345 148.019 215.253 154.065C215.16 160.111 219.986 165.088 226.032 165.18C232.078 165.273 237.055 160.447 237.148 154.401Z" fill="#359EA2"/>
<path d="M346.357 267.309H346.217C346.087 267.282 345.969 267.214 345.881 267.115C345.792 267.016 345.738 266.892 345.726 266.759L338.029 194.177L312.411 253.729C312.358 253.859 312.261 253.967 312.138 254.035C312.015 254.103 311.872 254.127 311.733 254.103C311.594 254.08 311.466 254.011 311.371 253.907C311.276 253.803 311.218 253.67 311.207 253.53L304.41 175.836L305.662 175.73L312.294 250.933L337.888 191.51C337.94 191.381 338.034 191.273 338.156 191.205C338.277 191.137 338.418 191.112 338.555 191.136C338.693 191.155 338.82 191.22 338.917 191.319C339.015 191.419 339.077 191.547 339.093 191.686L346.825 264.654L372.559 218.882L373.659 219.502L346.954 266.993C346.896 267.098 346.808 267.184 346.702 267.24C346.596 267.296 346.477 267.32 346.357 267.309Z" fill="#359EA2"/>
<path d="M307.757 175.788C307.757 176.327 307.598 176.854 307.298 177.303C306.999 177.751 306.573 178.1 306.075 178.306C305.577 178.513 305.029 178.567 304.5 178.461C303.972 178.356 303.486 178.097 303.105 177.716C302.724 177.334 302.464 176.849 302.359 176.32C302.254 175.791 302.308 175.243 302.514 174.745C302.72 174.247 303.07 173.822 303.518 173.522C303.966 173.223 304.493 173.063 305.032 173.063C305.39 173.061 305.745 173.131 306.077 173.267C306.408 173.404 306.709 173.604 306.963 173.858C307.216 174.111 307.417 174.412 307.553 174.743C307.69 175.075 307.759 175.43 307.757 175.788Z" fill="#359EA2"/>
<path opacity="0.2" d="M307.757 175.788C307.757 176.327 307.598 176.854 307.298 177.303C306.999 177.751 306.573 178.1 306.075 178.306C305.577 178.513 305.029 178.567 304.5 178.461C303.972 178.356 303.486 178.097 303.105 177.716C302.724 177.334 302.464 176.849 302.359 176.32C302.254 175.791 302.308 175.243 302.514 174.745C302.72 174.247 303.07 173.822 303.518 173.522C303.966 173.223 304.493 173.063 305.032 173.063C305.39 173.061 305.745 173.131 306.077 173.267C306.408 173.404 306.709 173.604 306.963 173.858C307.216 174.111 307.417 174.412 307.553 174.743C307.69 175.075 307.759 175.43 307.757 175.788Z" fill="black"/>
<path d="M340.743 192.714C340.741 193.251 340.58 193.774 340.28 194.219C339.981 194.664 339.556 195.01 339.06 195.213C338.564 195.417 338.019 195.469 337.493 195.363C336.967 195.257 336.485 194.997 336.106 194.617C335.728 194.238 335.471 193.754 335.367 193.228C335.263 192.702 335.318 192.157 335.523 191.661C335.729 191.166 336.077 190.743 336.523 190.445C336.969 190.148 337.493 189.989 338.029 189.989C338.387 189.989 338.741 190.059 339.071 190.197C339.401 190.334 339.7 190.535 339.953 190.788C340.205 191.041 340.404 191.342 340.54 191.672C340.676 192.003 340.745 192.357 340.743 192.714Z" fill="#359EA2"/>
<path opacity="0.2" d="M340.743 192.714C340.741 193.251 340.58 193.774 340.28 194.219C339.981 194.664 339.556 195.01 339.06 195.213C338.564 195.417 338.019 195.469 337.493 195.363C336.967 195.257 336.485 194.997 336.106 194.617C335.728 194.238 335.471 193.754 335.367 193.228C335.263 192.702 335.318 192.157 335.523 191.661C335.729 191.166 336.077 190.743 336.523 190.445C336.969 190.148 337.493 189.989 338.029 189.989C338.387 189.989 338.741 190.059 339.071 190.197C339.401 190.334 339.7 190.535 339.953 190.788C340.205 191.041 340.404 191.342 340.54 191.672C340.676 192.003 340.745 192.357 340.743 192.714Z" fill="black"/>
<path d="M376.327 219.502C376.325 220.038 376.164 220.561 375.864 221.006C375.564 221.451 375.14 221.797 374.644 222C374.148 222.204 373.602 222.256 373.077 222.15C372.551 222.044 372.069 221.785 371.69 221.405C371.312 221.025 371.054 220.541 370.951 220.015C370.847 219.489 370.901 218.944 371.107 218.449C371.313 217.953 371.661 217.53 372.107 217.233C372.553 216.935 373.077 216.776 373.613 216.776C373.971 216.776 374.324 216.847 374.654 216.984C374.984 217.121 375.284 217.322 375.536 217.575C375.788 217.828 375.988 218.129 376.124 218.459C376.259 218.79 376.329 219.144 376.327 219.502Z" fill="#359EA2"/>
<path opacity="0.2" d="M376.327 219.502C376.325 220.038 376.164 220.561 375.864 221.006C375.564 221.451 375.14 221.797 374.644 222C374.148 222.204 373.602 222.256 373.077 222.15C372.551 222.044 372.069 221.785 371.69 221.405C371.312 221.025 371.054 220.541 370.951 220.015C370.847 219.489 370.901 218.944 371.107 218.449C371.313 217.953 371.661 217.53 372.107 217.233C372.553 216.935 373.077 216.776 373.613 216.776C373.971 216.776 374.324 216.847 374.654 216.984C374.984 217.121 375.284 217.322 375.536 217.575C375.788 217.828 375.988 218.129 376.124 218.459C376.259 218.79 376.329 219.144 376.327 219.502Z" fill="black"/>
<path d="M364.559 293.921H364.43C364.127 293.899 363.842 293.769 363.627 293.554C363.412 293.339 363.282 293.054 363.261 292.751L355.166 207.688L337.409 258.747C337.316 259.015 337.135 259.243 336.896 259.396C336.656 259.549 336.373 259.616 336.09 259.588C335.808 259.56 335.543 259.437 335.339 259.24C335.135 259.043 335.003 258.782 334.965 258.501L324.273 180.023L297.697 246.593C297.589 246.851 297.399 247.067 297.157 247.205C296.914 247.344 296.632 247.398 296.355 247.359C296.078 247.32 295.822 247.191 295.626 246.991C295.431 246.791 295.308 246.532 295.275 246.254L288.596 180.748L291.111 180.491L297.264 240.85L323.712 174.596C323.818 174.34 324.005 174.126 324.243 173.985C324.481 173.844 324.758 173.783 325.033 173.812C325.31 173.846 325.567 173.972 325.764 174.169C325.961 174.366 326.087 174.623 326.121 174.9L336.754 252.921L354.733 201.453C354.825 201.182 355.009 200.951 355.252 200.799C355.495 200.648 355.783 200.585 356.067 200.622C356.359 200.657 356.63 200.793 356.833 201.007C357.036 201.22 357.158 201.498 357.178 201.792L365.237 286.493L382.257 233.55L384.655 234.323L365.764 293.09C365.675 293.338 365.512 293.551 365.295 293.7C365.079 293.849 364.822 293.926 364.559 293.921Z" fill="#359EA2"/>
<g opacity="0.2">
<path d="M364.559 293.92H364.43C364.127 293.899 363.842 293.768 363.627 293.553C363.412 293.339 363.282 293.054 363.26 292.751L355.166 207.687L337.409 258.746C337.316 259.014 337.135 259.243 336.895 259.396C336.656 259.548 336.372 259.616 336.09 259.587C335.807 259.559 335.543 259.436 335.338 259.239C335.134 259.042 335.002 258.782 334.964 258.501L324.273 180.023L297.696 246.593C297.589 246.851 297.399 247.066 297.156 247.205C296.913 247.343 296.631 247.397 296.355 247.359C296.078 247.32 295.821 247.19 295.626 246.99C295.431 246.79 295.307 246.531 295.275 246.253L288.596 180.748L291.111 180.491L297.263 240.849L323.711 174.595C323.818 174.34 324.004 174.125 324.242 173.984C324.48 173.843 324.758 173.782 325.033 173.811C325.31 173.846 325.567 173.971 325.764 174.168C325.961 174.365 326.087 174.623 326.121 174.899L336.754 252.921L354.733 201.452C354.825 201.181 355.008 200.95 355.251 200.799C355.494 200.648 355.782 200.585 356.066 200.622C356.359 200.657 356.63 200.793 356.833 201.006C357.036 201.22 357.158 201.498 357.178 201.792L365.237 286.492L382.257 233.55L384.655 234.322L365.763 293.09C365.675 293.337 365.511 293.55 365.295 293.699C365.079 293.848 364.821 293.926 364.559 293.92Z" fill="black"/>
</g>
<path opacity="0.3" d="M324.636 186.374C330.483 186.374 335.222 181.635 335.222 175.788C335.222 169.942 330.483 165.202 324.636 165.202C318.79 165.202 314.05 169.942 314.05 175.788C314.05 181.635 318.79 186.374 324.636 186.374Z" fill="#359EA2"/>
<path d="M324.636 181.697C327.898 181.697 330.543 179.052 330.543 175.789C330.543 172.527 327.898 169.882 324.636 169.882C321.373 169.882 318.728 172.527 318.728 175.789C318.728 179.052 321.373 181.697 324.636 181.697Z" fill="#359EA2"/>
<path d="M168.978 262.571C168.857 262.571 168.738 262.535 168.637 262.468C168.535 262.402 168.455 262.308 168.405 262.197L151.397 224.765L152.567 224.239L168.861 260.056L191.086 181.461C191.118 181.355 191.176 181.258 191.257 181.182C191.337 181.105 191.436 181.051 191.544 181.025C191.652 180.999 191.765 181.002 191.872 181.033C191.978 181.065 192.075 181.124 192.151 181.204L231.244 223.549L256.3 164.512C256.347 164.396 256.428 164.296 256.532 164.226C256.636 164.156 256.759 164.119 256.884 164.119C257.01 164.119 257.133 164.156 257.237 164.226C257.341 164.296 257.422 164.396 257.469 164.512L279.437 209.418L278.267 209.968L256.896 166.302L231.992 224.976C231.953 225.073 231.89 225.159 231.808 225.225C231.726 225.29 231.628 225.333 231.524 225.35C231.421 225.367 231.315 225.359 231.215 225.326C231.115 225.294 231.025 225.238 230.951 225.163L191.952 182.947L169.587 262.103C169.554 262.228 169.484 262.34 169.385 262.424C169.287 262.507 169.165 262.559 169.037 262.571H168.978Z" fill="#359EA2"/>
<path d="M154.837 224.286C154.837 224.823 154.677 225.348 154.379 225.794C154.081 226.24 153.657 226.588 153.161 226.794C152.665 226.999 152.12 227.053 151.593 226.948C151.067 226.843 150.583 226.585 150.204 226.205C149.824 225.826 149.566 225.342 149.461 224.816C149.356 224.289 149.41 223.744 149.616 223.248C149.821 222.752 150.169 222.328 150.615 222.03C151.061 221.732 151.586 221.573 152.123 221.573C152.843 221.573 153.533 221.859 154.042 222.368C154.551 222.876 154.837 223.567 154.837 224.286Z" fill="#359EA2"/>
<path opacity="0.2" d="M152.123 229.527C151.086 229.527 150.073 229.22 149.211 228.644C148.35 228.068 147.678 227.25 147.281 226.292C146.885 225.334 146.781 224.281 146.983 223.264C147.185 222.248 147.684 221.314 148.417 220.581C149.15 219.848 150.084 219.349 151.101 219.147C152.117 218.945 153.171 219.048 154.128 219.445C155.086 219.842 155.904 220.513 156.48 221.375C157.056 222.237 157.363 223.25 157.363 224.287C157.363 225.676 156.811 227.009 155.828 227.992C154.846 228.975 153.513 229.527 152.123 229.527Z" fill="#359EA2"/>
<path opacity="0.2" d="M154.837 224.286C154.837 224.823 154.677 225.348 154.379 225.794C154.081 226.24 153.657 226.588 153.161 226.794C152.665 226.999 152.12 227.053 151.593 226.948C151.067 226.843 150.583 226.585 150.204 226.205C149.824 225.826 149.566 225.342 149.461 224.816C149.356 224.289 149.41 223.744 149.616 223.248C149.821 222.752 150.169 222.328 150.615 222.03C151.061 221.732 151.586 221.573 152.123 221.573C152.843 221.573 153.533 221.859 154.042 222.368C154.551 222.876 154.837 223.567 154.837 224.286Z" fill="black"/>
<path d="M171.692 261.309C171.695 261.849 171.537 262.377 171.238 262.827C170.939 263.277 170.514 263.628 170.015 263.836C169.517 264.044 168.968 264.099 168.438 263.994C167.908 263.889 167.422 263.629 167.04 263.248C166.658 262.866 166.398 262.379 166.293 261.849C166.188 261.319 166.243 260.77 166.451 260.272C166.659 259.773 167.01 259.348 167.46 259.049C167.91 258.751 168.439 258.593 168.979 258.595C169.698 258.595 170.389 258.881 170.898 259.39C171.407 259.899 171.692 260.589 171.692 261.309Z" fill="#359EA2"/>
<path opacity="0.2" d="M168.978 266.549C167.941 266.551 166.927 266.246 166.064 265.672C165.201 265.097 164.527 264.28 164.129 263.322C163.73 262.365 163.625 261.311 163.826 260.294C164.026 259.276 164.525 258.341 165.257 257.607C165.989 256.873 166.923 256.373 167.94 256.17C168.957 255.967 170.011 256.07 170.969 256.466C171.928 256.862 172.747 257.534 173.323 258.396C173.9 259.258 174.207 260.272 174.207 261.309C174.204 262.696 173.653 264.025 172.673 265.007C171.693 265.988 170.365 266.543 168.978 266.549Z" fill="#359EA2"/>
<path opacity="0.2" d="M171.692 261.309C171.695 261.849 171.537 262.377 171.238 262.827C170.939 263.277 170.514 263.628 170.015 263.836C169.517 264.044 168.968 264.099 168.438 263.994C167.908 263.889 167.422 263.629 167.04 263.248C166.658 262.866 166.398 262.379 166.293 261.849C166.188 261.319 166.243 260.77 166.451 260.272C166.659 259.773 167.01 259.348 167.46 259.049C167.91 258.751 168.439 258.593 168.979 258.595C169.698 258.595 170.389 258.881 170.898 259.39C171.407 259.899 171.692 260.589 171.692 261.309Z" fill="black"/>
<path d="M191.344 184.865C192.843 184.865 194.058 183.65 194.058 182.152C194.058 180.653 192.843 179.438 191.344 179.438C189.845 179.438 188.63 180.653 188.63 182.152C188.63 183.65 189.845 184.865 191.344 184.865Z" fill="#359EA2"/>
<path opacity="0.2" d="M191.344 187.381C190.307 187.381 189.294 187.073 188.432 186.497C187.57 185.92 186.898 185.101 186.502 184.143C186.105 183.185 186.002 182.131 186.205 181.114C186.408 180.097 186.909 179.163 187.643 178.431C188.377 177.698 189.312 177.2 190.329 176.999C191.346 176.798 192.4 176.904 193.358 177.302C194.315 177.701 195.133 178.374 195.707 179.237C196.282 180.101 196.587 181.115 196.585 182.152C196.585 182.84 196.449 183.521 196.185 184.156C195.922 184.791 195.536 185.368 195.049 185.853C194.562 186.339 193.984 186.724 193.349 186.986C192.713 187.248 192.032 187.382 191.344 187.381Z" fill="#359EA2"/>
<path opacity="0.2" d="M191.344 184.865C192.843 184.865 194.058 183.65 194.058 182.152C194.058 180.653 192.843 179.438 191.344 179.438C189.845 179.438 188.63 180.653 188.63 182.152C188.63 183.65 189.845 184.865 191.344 184.865Z" fill="black"/>
<path d="M259.563 164.933C259.563 165.47 259.404 165.995 259.106 166.441C258.808 166.887 258.384 167.235 257.888 167.44C257.392 167.646 256.846 167.7 256.32 167.595C255.793 167.49 255.31 167.232 254.93 166.852C254.551 166.473 254.292 165.989 254.188 165.463C254.083 164.936 254.137 164.391 254.342 163.895C254.547 163.399 254.895 162.975 255.342 162.677C255.788 162.379 256.313 162.219 256.849 162.219C257.569 162.219 258.259 162.505 258.768 163.014C259.277 163.523 259.563 164.213 259.563 164.933Z" fill="#359EA2"/>
<path opacity="0.2" d="M256.85 170.115C255.813 170.117 254.798 169.812 253.935 169.238C253.072 168.663 252.398 167.846 252 166.888C251.601 165.931 251.496 164.877 251.697 163.859C251.898 162.842 252.396 161.907 253.128 161.173C253.861 160.439 254.794 159.939 255.811 159.736C256.828 159.533 257.882 159.636 258.841 160.032C259.799 160.428 260.618 161.1 261.194 161.962C261.771 162.824 262.078 163.838 262.078 164.875C262.075 166.262 261.524 167.591 260.544 168.573C259.565 169.554 258.237 170.109 256.85 170.115Z" fill="#359EA2"/>
<path opacity="0.2" d="M259.563 164.933C259.563 165.47 259.404 165.995 259.106 166.441C258.808 166.887 258.384 167.235 257.888 167.44C257.392 167.646 256.846 167.7 256.32 167.595C255.793 167.49 255.31 167.232 254.93 166.852C254.551 166.473 254.292 165.989 254.188 165.463C254.083 164.936 254.137 164.391 254.342 163.895C254.547 163.399 254.895 162.975 255.342 162.677C255.788 162.379 256.313 162.219 256.849 162.219C257.569 162.219 258.259 162.505 258.768 163.014C259.277 163.523 259.563 164.213 259.563 164.933Z" fill="black"/>
<path d="M282.819 380.832C282.867 384.298 281.888 387.699 280.005 390.609C278.121 393.518 275.419 395.805 272.238 397.18C269.057 398.555 265.54 398.958 262.13 398.337C258.721 397.715 255.572 396.099 253.08 393.69C250.588 391.281 248.866 388.189 248.129 384.802C247.393 381.416 247.676 377.887 248.943 374.661C250.209 371.435 252.403 368.657 255.247 366.676C258.091 364.696 261.457 363.602 264.922 363.532C267.235 363.485 269.535 363.897 271.688 364.742C273.841 365.588 275.806 366.851 277.47 368.459C279.133 370.067 280.462 371.988 281.38 374.111C282.298 376.235 282.787 378.519 282.819 380.832Z" fill="#37474F"/>
<path d="M243.937 382.681C232.158 376.142 231.971 365.228 243.563 358.268C250.065 354.856 257.278 353.022 264.62 352.914C271.962 352.806 279.226 354.428 285.825 357.648C297.523 364.21 297.745 375.136 286.188 382.014C279.695 385.442 272.484 387.29 265.142 387.406C257.801 387.521 250.535 385.902 243.937 382.681Z" fill="#455A64"/>
<path d="M243.176 376.363C231.046 369.579 230.847 358.338 242.755 351.191C249.46 347.674 256.896 345.78 264.465 345.66C272.035 345.54 279.527 347.198 286.34 350.501C298.47 357.285 298.669 368.526 286.691 375.638C280.011 379.19 272.585 381.108 265.021 381.234C257.457 381.36 249.97 379.691 243.176 376.363Z" fill="#37474F"/>
<path d="M242.428 369.907C229.97 362.889 229.771 351.367 242.147 344.29C249.028 340.673 256.664 338.726 264.436 338.607C272.209 338.487 279.901 340.197 286.89 343.6C299.418 350.548 299.628 362.164 287.358 369.521C280.424 373.108 272.744 375.011 264.939 375.078C257.133 375.145 249.422 373.374 242.428 369.907Z" fill="#455A64"/>
<path d="M241.586 363.04C228.719 355.893 228.567 343.927 241.211 336.37C248.317 332.615 256.208 330.588 264.244 330.452C272.279 330.315 280.234 332.075 287.463 335.587C300.33 342.792 300.552 354.724 287.861 362.315C280.745 366.058 272.849 368.075 264.81 368.201C256.771 368.327 248.815 366.559 241.586 363.04Z" fill="#37474F"/>
<path d="M240.942 356.046C227.642 348.442 227.561 336.511 240.51 328.756C247.771 324.92 255.836 322.856 264.047 322.732C272.258 322.608 280.382 324.428 287.755 328.042C300.915 335.318 301.102 347.518 288.153 355.274C280.899 359.107 272.843 361.175 264.64 361.309C256.437 361.443 248.318 359.64 240.942 356.046Z" fill="#455A64"/>
<path d="M261.319 150.229C250.32 150.376 239.458 152.688 229.353 157.034C219.248 161.38 210.099 167.674 202.427 175.558C194.756 183.441 188.713 192.759 184.644 202.978C180.575 213.198 178.559 224.119 178.712 235.118V235.504C179.753 302.109 234.778 312.332 235.339 339.119C235.611 341.664 236.558 344.091 238.081 346.147C239.605 348.204 241.651 349.816 244.007 350.817C250.398 353.94 257.436 355.514 264.549 355.41C271.662 355.306 278.65 353.528 284.948 350.22C287.242 349.134 289.208 347.46 290.646 345.369C292.084 343.277 292.943 340.843 293.136 338.312C292.645 311.42 347.389 299.453 346.359 232.837C346.214 221.841 343.905 210.982 339.562 200.88C335.22 190.777 328.93 181.629 321.051 173.958C313.172 166.287 303.86 160.243 293.645 156.172C283.43 152.1 272.513 150.081 261.518 150.229H261.319Z" fill="#359EA2"/>
<g opacity="0.6">
<path d="M261.32 150.23C250.321 150.376 239.459 152.688 229.354 157.034C219.249 161.38 210.1 167.675 202.428 175.558C194.757 183.441 188.714 192.759 184.645 202.978C180.576 213.198 178.56 224.119 178.713 235.118V235.504C179.754 302.109 234.779 312.332 235.34 339.119C235.612 341.664 236.559 344.091 238.082 346.147C239.606 348.204 241.652 349.816 244.008 350.817C250.399 353.94 257.437 355.514 264.55 355.41C271.663 355.307 278.651 353.529 284.949 350.22C287.243 349.134 289.209 347.46 290.647 345.369C292.085 343.277 292.944 340.843 293.137 338.312C292.646 311.42 347.39 299.453 346.36 232.837C346.215 221.841 343.906 210.982 339.563 200.88C335.221 190.777 328.931 181.629 321.052 173.958C313.173 166.287 303.861 160.243 293.646 156.172C283.431 152.1 272.514 150.081 261.519 150.23H261.32Z" fill="white"/>
</g>
<path d="M249.131 347.261C240.779 342.395 240.381 334.581 248.581 329.598C253.321 327.111 258.58 325.773 263.932 325.694C269.285 325.615 274.581 326.796 279.392 329.142C287.744 334.008 288.083 341.845 279.661 346.91C274.954 349.351 269.74 350.654 264.438 350.715C259.136 350.776 253.893 349.593 249.131 347.261Z" fill="#359EA2"/>
<path d="M275.486 335.879C274.749 335.883 274.04 335.604 273.504 335.098C272.968 334.593 272.647 333.901 272.608 333.165C272.439 317.031 274.179 300.932 277.79 285.206C278.795 280.65 280.12 276.17 281.756 271.801C279.179 270.903 276.707 269.727 274.386 268.292C270.14 265.773 266.305 262.617 263.016 258.934C259.845 262.627 256.153 265.838 252.056 268.467C249.772 269.922 247.346 271.141 244.815 272.105C246.572 276.442 248.045 280.889 249.225 285.417C253.353 301.047 255.579 317.119 255.858 333.282C255.803 334.006 255.475 334.682 254.94 335.173C254.404 335.663 253.702 335.931 252.976 335.922C252.25 335.913 251.555 335.628 251.032 335.124C250.509 334.621 250.198 333.937 250.161 333.212C249.81 317.553 247.635 301.988 243.681 286.832C242.543 282.334 241.061 277.931 239.247 273.661C236.427 274.262 233.504 274.172 230.726 273.4C227.948 272.629 225.398 271.197 223.292 269.227C221.714 267.758 220.706 265.778 220.447 263.637C220.188 261.497 220.694 259.333 221.877 257.53C222.686 256.265 223.853 255.268 225.23 254.666C226.606 254.065 228.13 253.885 229.609 254.15C232.547 255.237 235.212 256.951 237.42 259.173C239.628 261.395 241.326 264.072 242.394 267.017C244.69 266.17 246.883 265.067 248.933 263.73C252.922 261.196 256.477 258.036 259.46 254.372C257.673 252.159 256.358 249.605 255.595 246.865C254.833 244.125 254.639 241.257 255.027 238.44C255.508 236.803 256.5 235.362 257.858 234.328C259.216 233.295 260.869 232.722 262.575 232.695C264.281 232.668 265.952 233.186 267.342 234.176C268.733 235.165 269.77 236.573 270.304 238.194C270.8 240.994 270.711 243.867 270.043 246.631C269.375 249.395 268.141 251.991 266.42 254.255C269.518 257.788 273.158 260.805 277.205 263.192C279.307 264.438 281.539 265.45 283.861 266.21C284.869 263.252 286.498 260.545 288.638 258.269C290.779 255.993 293.382 254.201 296.272 253.015C297.755 252.735 299.288 252.907 300.673 253.507C302.057 254.108 303.23 255.11 304.039 256.384C305.288 258.137 305.87 260.278 305.682 262.422C305.493 264.566 304.546 266.573 303.01 268.081C300.967 270.115 298.464 271.627 295.714 272.491C292.963 273.354 290.045 273.543 287.207 273.041C285.533 277.37 284.177 281.815 283.148 286.341C279.685 301.625 278.024 317.261 278.2 332.931C278.222 333.688 277.944 334.422 277.427 334.974C276.91 335.526 276.195 335.852 275.439 335.879H275.486ZM228.193 259.776C227.86 259.795 227.539 259.905 227.263 260.092C226.987 260.279 226.767 260.538 226.626 260.84C225.245 262.735 226.895 264.794 227.433 265.344C228.66 266.456 230.117 267.284 231.699 267.771C233.282 268.258 234.952 268.392 236.592 268.163C235.069 264.465 232.231 261.461 228.626 259.729L228.193 259.776ZM289.862 267.578C291.518 267.72 293.185 267.508 294.752 266.955C296.319 266.402 297.75 265.522 298.951 264.373C299.43 263.788 301.056 261.729 299.664 259.846C299.472 259.483 299.168 259.19 298.798 259.011C298.428 258.833 298.01 258.777 297.606 258.852C295.687 259.226 292.775 261.917 289.862 267.578ZM262.841 238.627C262.34 238.542 261.826 238.66 261.411 238.954C260.997 239.247 260.716 239.694 260.63 240.195C260.276 243.47 261.106 246.765 262.97 249.482C264.72 246.696 265.436 243.384 264.993 240.124C264.907 239.624 264.626 239.177 264.212 238.883C263.798 238.59 263.283 238.472 262.782 238.557L262.841 238.627Z" fill="white"/>
<g opacity="0.3">
<path d="M285.568 233.095C303.359 233.095 317.782 218.672 317.782 200.88C317.782 183.089 303.359 168.666 285.568 168.666C267.776 168.666 253.353 183.089 253.353 200.88C253.353 218.672 267.776 233.095 285.568 233.095Z" fill="white"/>
<path d="M314.25 268.947C322.971 268.947 330.041 261.877 330.041 253.156C330.041 244.435 322.971 237.364 314.25 237.364C305.528 237.364 298.458 244.435 298.458 253.156C298.458 261.877 305.528 268.947 314.25 268.947Z" fill="white"/>
</g>
<path d="M248.966 367.381L225.91 296.6L180.969 324.124C180.812 324.217 180.637 324.276 180.455 324.297C180.274 324.317 180.09 324.298 179.916 324.241C179.742 324.184 179.583 324.089 179.45 323.964C179.316 323.838 179.212 323.685 179.144 323.515L145.023 238.499L147.362 237.563L180.957 321.199L225.957 293.605C226.12 293.504 226.303 293.44 226.494 293.42C226.684 293.4 226.877 293.423 227.057 293.488C227.235 293.556 227.396 293.662 227.527 293.8C227.659 293.937 227.758 294.103 227.817 294.284L251.364 366.597L248.966 367.381Z" fill="#359EA2"/>
<g opacity="0.1">
<path d="M248.964 367.381L225.909 296.6L180.967 324.124C180.811 324.218 180.635 324.277 180.454 324.297C180.272 324.317 180.088 324.298 179.915 324.241C179.741 324.184 179.582 324.089 179.448 323.964C179.315 323.839 179.211 323.686 179.143 323.516L145.021 238.499L147.361 237.563L180.956 321.2L225.956 293.606C226.118 293.504 226.301 293.441 226.492 293.42C226.682 293.4 226.875 293.423 227.055 293.489C227.233 293.556 227.394 293.662 227.526 293.8C227.657 293.938 227.756 294.103 227.816 294.284L251.362 366.597L248.964 367.381Z" fill="black"/>
</g>
<path d="M274.933 374.633L272.454 374.2L285.145 301.454C285.184 301.231 285.282 301.023 285.428 300.85C285.573 300.677 285.763 300.547 285.976 300.471C286.188 300.398 286.417 300.383 286.637 300.428C286.857 300.473 287.061 300.577 287.227 300.728L329.841 339.119L340.755 282.972C340.798 282.75 340.9 282.544 341.05 282.375C341.2 282.206 341.392 282.08 341.607 282.011C341.822 281.942 342.052 281.931 342.272 281.981C342.493 282.031 342.696 282.139 342.86 282.293L374.759 312.613L386.117 255.085L388.585 255.576L376.783 315.338C376.743 315.562 376.642 315.769 376.491 315.939C376.34 316.108 376.146 316.232 375.929 316.298C375.714 316.367 375.485 316.377 375.265 316.328C375.045 316.279 374.842 316.171 374.677 316.017L342.79 285.709L331.9 341.786C331.857 342.007 331.757 342.212 331.609 342.38C331.461 342.549 331.27 342.675 331.058 342.745C330.847 342.818 330.62 342.832 330.402 342.787C330.184 342.742 329.982 342.639 329.818 342.488L287.239 304.132L274.933 374.633Z" fill="#359EA2"/>
<g opacity="0.1">
<path d="M274.933 374.633L272.453 374.2L285.145 301.454C285.184 301.231 285.281 301.023 285.427 300.85C285.573 300.677 285.762 300.547 285.975 300.471C286.188 300.398 286.416 300.383 286.636 300.428C286.857 300.473 287.061 300.577 287.227 300.729L329.841 339.119L340.754 282.972C340.797 282.75 340.899 282.544 341.049 282.375C341.199 282.206 341.392 282.081 341.607 282.011C341.822 281.942 342.051 281.932 342.272 281.981C342.492 282.031 342.695 282.139 342.86 282.294L374.759 312.613L386.117 255.085L388.585 255.577L376.782 315.339C376.742 315.562 376.641 315.769 376.491 315.939C376.34 316.108 376.145 316.232 375.928 316.298C375.714 316.367 375.484 316.378 375.264 316.328C375.044 316.279 374.841 316.171 374.677 316.017L342.79 285.709L331.899 341.787C331.857 342.007 331.756 342.212 331.608 342.38C331.46 342.549 331.27 342.675 331.057 342.746C330.846 342.818 330.62 342.833 330.402 342.787C330.184 342.742 329.982 342.639 329.817 342.488L287.239 304.133L274.933 374.633Z" fill="black"/>
</g>
<path d="M144.964 241.586C148.226 241.586 150.871 238.941 150.871 235.679C150.871 232.416 148.226 229.771 144.964 229.771C141.701 229.771 139.057 232.416 139.057 235.679C139.057 238.941 141.701 241.586 144.964 241.586Z" fill="#359EA2"/>
<path d="M148.953 295.628C152.215 295.628 154.86 292.984 154.86 289.721C154.86 286.459 152.215 283.814 148.953 283.814C145.69 283.814 143.045 286.459 143.045 289.721C143.045 292.984 145.69 295.628 148.953 295.628Z" fill="#359EA2"/>
<path d="M168.979 206.295C172.241 206.295 174.886 203.65 174.886 200.388C174.886 197.126 172.241 194.481 168.979 194.481C165.716 194.481 163.071 197.126 163.071 200.388C163.071 203.65 165.716 206.295 168.979 206.295Z" fill="#359EA2"/>
<path d="M355.681 208.436C358.943 208.436 361.588 205.791 361.588 202.529C361.588 199.266 358.943 196.621 355.681 196.621C352.419 196.621 349.774 199.266 349.774 202.529C349.774 205.791 352.419 208.436 355.681 208.436Z" fill="#359EA2"/>
<path d="M383.217 240.464C386.479 240.464 389.124 237.819 389.124 234.557C389.124 231.295 386.479 228.65 383.217 228.65C379.954 228.65 377.31 231.295 377.31 234.557C377.31 237.819 379.954 240.464 383.217 240.464Z" fill="#359EA2"/>
<path d="M180.314 328.954C183.576 328.954 186.221 326.31 186.221 323.047C186.221 319.785 183.576 317.14 180.314 317.14C177.051 317.14 174.407 319.785 174.407 323.047C174.407 326.31 177.051 328.954 180.314 328.954Z" fill="#359EA2"/>
<path d="M227.349 301.536C230.611 301.536 233.256 298.891 233.256 295.629C233.256 292.366 230.611 289.722 227.349 289.722C224.086 289.722 221.442 292.366 221.442 295.629C221.442 298.891 224.086 301.536 227.349 301.536Z" fill="#359EA2"/>
<path d="M250.158 373.148C253.42 373.148 256.065 370.503 256.065 367.24C256.065 363.978 253.42 361.333 250.158 361.333C246.895 361.333 244.251 363.978 244.251 367.24C244.251 370.503 246.895 373.148 250.158 373.148Z" fill="#359EA2"/>
<path d="M273.694 380.318C276.956 380.318 279.601 377.673 279.601 374.41C279.601 371.148 276.956 368.503 273.694 368.503C270.431 368.503 267.786 371.148 267.786 374.41C267.786 377.673 270.431 380.318 273.694 380.318Z" fill="#359EA2"/>
<path d="M292.632 302.506C292.634 303.678 292.289 304.823 291.64 305.798C290.991 306.773 290.067 307.533 288.986 307.983C287.905 308.433 286.714 308.552 285.565 308.325C284.416 308.098 283.361 307.535 282.532 306.708C281.703 305.88 281.138 304.826 280.909 303.677C280.679 302.529 280.796 301.338 281.244 300.256C281.691 299.174 282.45 298.249 283.423 297.598C284.397 296.947 285.542 296.599 286.713 296.599C288.28 296.602 289.782 297.225 290.891 298.332C292 299.439 292.626 300.94 292.632 302.506Z" fill="#359EA2"/>
<path d="M329.97 347.295C333.232 347.295 335.877 344.651 335.877 341.388C335.877 338.126 333.232 335.481 329.97 335.481C326.707 335.481 324.063 338.126 324.063 341.388C324.063 344.651 326.707 347.295 329.97 347.295Z" fill="#359EA2"/>
<path d="M341.89 291.312C345.152 291.312 347.797 288.668 347.797 285.405C347.797 282.143 345.152 279.498 341.89 279.498C338.628 279.498 335.983 282.143 335.983 285.405C335.983 288.668 338.628 291.312 341.89 291.312Z" fill="#359EA2"/>
<path d="M375.906 320.766C379.168 320.766 381.813 318.122 381.813 314.859C381.813 311.597 379.168 308.952 375.906 308.952C372.643 308.952 369.999 311.597 369.999 314.859C369.999 318.122 372.643 320.766 375.906 320.766Z" fill="#359EA2"/>
<path opacity="0.3" d="M152.709 243.425C156.985 239.149 156.985 232.217 152.709 227.941C148.433 223.665 141.501 223.665 137.225 227.941C132.949 232.217 132.949 239.149 137.225 243.425C141.501 247.701 148.433 247.701 152.709 243.425Z" fill="#359EA2"/>
<path opacity="0.3" d="M159.617 292.22C161.006 286.335 157.361 280.438 151.476 279.049C145.591 277.66 139.694 281.305 138.305 287.19C136.916 293.075 140.561 298.972 146.446 300.361C152.331 301.75 158.228 298.106 159.617 292.22Z" fill="#359EA2"/>
<path opacity="0.3" d="M168.978 211.337C166.813 211.337 164.696 210.694 162.896 209.491C161.095 208.288 159.692 206.578 158.863 204.578C158.034 202.577 157.818 200.376 158.24 198.252C158.663 196.128 159.705 194.177 161.236 192.646C162.768 191.115 164.719 190.072 166.842 189.649C168.966 189.227 171.168 189.444 173.168 190.273C175.169 191.101 176.879 192.505 178.082 194.305C179.285 196.106 179.927 198.222 179.927 200.388C179.924 203.291 178.77 206.074 176.717 208.126C174.664 210.179 171.881 211.334 168.978 211.337Z" fill="#359EA2"/>
<path opacity="0.3" d="M355.681 213.489C353.513 213.491 351.393 212.851 349.589 211.648C347.785 210.445 346.378 208.734 345.547 206.731C344.716 204.729 344.497 202.524 344.918 200.398C345.34 198.271 346.383 196.317 347.915 194.783C349.448 193.249 351.401 192.204 353.527 191.78C355.654 191.356 357.858 191.572 359.861 192.401C361.865 193.231 363.577 194.635 364.782 196.438C365.987 198.241 366.63 200.36 366.63 202.529C366.627 205.433 365.473 208.217 363.421 210.271C361.368 212.326 358.585 213.483 355.681 213.489Z" fill="#359EA2"/>
<path opacity="0.3" d="M393.879 237.078C395.263 231.191 391.613 225.298 385.727 223.914C379.841 222.53 373.947 226.18 372.563 232.066C371.179 237.953 374.829 243.846 380.715 245.23C386.602 246.614 392.495 242.964 393.879 237.078Z" fill="#359EA2"/>
<path opacity="0.3" d="M191.27 323.195C191.338 317.148 186.492 312.191 180.446 312.122C174.399 312.054 169.442 316.9 169.374 322.946C169.305 328.993 174.151 333.95 180.197 334.019C186.244 334.087 191.201 329.241 191.27 323.195Z" fill="#359EA2"/>
<path opacity="0.3" d="M229.565 305.663C235.128 303.365 237.775 296.993 235.477 291.43C233.179 285.866 226.807 283.219 221.244 285.517C215.681 287.815 213.034 294.187 215.331 299.751C217.629 305.314 224.002 307.961 229.565 305.663Z" fill="#359EA2"/>
<path opacity="0.3" d="M250.159 378.189C247.991 378.189 245.871 377.546 244.068 376.341C242.266 375.136 240.861 373.423 240.032 371.42C239.202 369.416 238.986 367.212 239.41 365.086C239.834 362.959 240.879 361.006 242.413 359.474C243.947 357.942 245.901 356.899 248.028 356.477C250.155 356.055 252.359 356.274 254.361 357.105C256.364 357.937 258.075 359.343 259.278 361.147C260.481 362.951 261.122 365.072 261.119 367.24C261.116 370.145 259.96 372.93 257.905 374.983C255.85 377.036 253.064 378.189 250.159 378.189Z" fill="#359EA2"/>
<path opacity="0.3" d="M284.358 376.96C285.753 371.077 282.115 365.176 276.231 363.781C270.347 362.386 264.447 366.024 263.051 371.908C261.656 377.792 265.295 383.692 271.179 385.088C277.062 386.483 282.963 382.844 284.358 376.96Z" fill="#359EA2"/>
<path opacity="0.3" d="M286.712 313.455C292.759 313.455 297.661 308.553 297.661 302.506C297.661 296.459 292.759 291.558 286.712 291.558C280.666 291.558 275.764 296.459 275.764 302.506C275.764 308.553 280.666 313.455 286.712 313.455Z" fill="#359EA2"/>
<path opacity="0.3" d="M329.97 352.338C336.017 352.338 340.919 347.436 340.919 341.389C340.919 335.342 336.017 330.44 329.97 330.44C323.924 330.44 319.022 335.342 319.022 341.389C319.022 347.436 323.924 352.338 329.97 352.338Z" fill="#359EA2"/>
<path opacity="0.3" d="M352.675 287.136C353.645 281.168 349.594 275.543 343.626 274.572C337.658 273.601 332.032 277.652 331.061 283.62C330.09 289.589 334.141 295.214 340.11 296.185C346.078 297.156 351.704 293.105 352.675 287.136Z" fill="#359EA2"/>
<path opacity="0.3" d="M386.566 317.374C387.95 311.488 384.3 305.594 378.414 304.21C372.527 302.826 366.634 306.476 365.25 312.363C363.866 318.249 367.516 324.143 373.402 325.527C379.288 326.91 385.182 323.26 386.566 317.374Z" fill="#359EA2"/>
<path opacity="0.3" d="M387.24 266.104C385.075 266.104 382.958 265.462 381.157 264.259C379.357 263.056 377.953 261.346 377.125 259.345C376.296 257.345 376.079 255.143 376.502 253.02C376.924 250.896 377.967 248.945 379.498 247.414C381.029 245.882 382.98 244.84 385.104 244.417C387.228 243.995 389.429 244.211 391.43 245.04C393.431 245.869 395.141 247.272 396.344 249.073C397.547 250.873 398.189 252.99 398.189 255.156C398.186 258.058 397.031 260.841 394.979 262.894C392.926 264.947 390.143 266.101 387.24 266.104Z" fill="#359EA2"/>
<path d="M387.24 261.063C390.503 261.063 393.148 258.418 393.148 255.156C393.148 251.893 390.503 249.248 387.24 249.248C383.978 249.248 381.333 251.893 381.333 255.156C381.333 258.418 383.978 261.063 387.24 261.063Z" fill="#359EA2"/>
<path d="M218.587 358.865H218.494C218.362 358.843 218.241 358.78 218.146 358.686C218.052 358.592 217.99 358.47 217.967 358.339L207.884 290.412L191.063 297.641C190.978 297.678 190.887 297.698 190.794 297.698C190.701 297.698 190.61 297.678 190.525 297.641C190.441 297.598 190.368 297.537 190.311 297.462C190.255 297.387 190.216 297.301 190.198 297.208L182.816 260.783L156.918 296.53C156.82 296.664 156.673 296.754 156.509 296.78C156.344 296.807 156.176 296.767 156.041 296.67C155.906 296.57 155.816 296.421 155.79 296.254C155.763 296.088 155.803 295.918 155.901 295.781L182.641 258.852C182.714 258.755 182.813 258.68 182.927 258.636C183.041 258.593 183.165 258.583 183.284 258.607C183.404 258.631 183.515 258.691 183.6 258.778C183.686 258.866 183.743 258.977 183.764 259.098L191.274 296.179L208.188 288.927C208.275 288.883 208.371 288.861 208.469 288.861C208.566 288.861 208.662 288.883 208.75 288.927C208.832 288.975 208.904 289.041 208.958 289.12C209.013 289.198 209.049 289.288 209.065 289.383L218.973 356.187L241.198 313.479C241.253 313.382 241.333 313.301 241.43 313.245C241.526 313.188 241.636 313.159 241.748 313.159C241.86 313.159 241.97 313.188 242.066 313.245C242.163 313.301 242.243 313.382 242.298 313.479L264.885 350.736C264.93 350.806 264.96 350.884 264.973 350.966C264.986 351.048 264.983 351.132 264.964 351.213C264.944 351.294 264.908 351.37 264.859 351.436C264.809 351.503 264.747 351.559 264.675 351.601C264.531 351.685 264.361 351.709 264.2 351.67C264.038 351.631 263.899 351.531 263.809 351.391L241.806 315.129L219.149 358.526C219.095 358.629 219.014 358.714 218.915 358.774C218.816 358.834 218.703 358.866 218.587 358.865Z" fill="#359EA2"/>
<path opacity="0.3" d="M156.182 301.851C155.145 301.856 154.129 301.552 153.264 300.979C152.4 300.406 151.724 299.589 151.324 298.632C150.924 297.675 150.817 296.621 151.016 295.603C151.216 294.585 151.713 293.649 152.445 292.913C153.177 292.178 154.111 291.677 155.128 291.473C156.145 291.269 157.2 291.371 158.159 291.767C159.118 292.163 159.938 292.834 160.514 293.697C161.091 294.559 161.399 295.573 161.399 296.611C161.396 297.995 160.846 299.323 159.869 300.305C158.892 301.286 157.567 301.842 156.182 301.851Z" fill="#359EA2"/>
<path d="M156.181 299.324C157.68 299.324 158.895 298.109 158.895 296.611C158.895 295.112 157.68 293.897 156.181 293.897C154.683 293.897 153.468 295.112 153.468 296.611C153.468 298.109 154.683 299.324 156.181 299.324Z" fill="#359EA2"/>
<path opacity="0.3" d="M156.182 301.851C155.145 301.856 154.129 301.552 153.264 300.979C152.4 300.406 151.724 299.589 151.324 298.632C150.924 297.675 150.817 296.621 151.016 295.603C151.216 294.585 151.713 293.649 152.445 292.913C153.177 292.178 154.111 291.677 155.128 291.473C156.145 291.269 157.2 291.371 158.159 291.767C159.118 292.163 159.938 292.834 160.514 293.697C161.091 294.559 161.399 295.573 161.399 296.611C161.396 297.995 160.846 299.323 159.869 300.305C158.892 301.286 157.567 301.842 156.182 301.851Z" fill="#359EA2"/>
<path opacity="0.2" d="M156.181 299.324C157.68 299.324 158.895 298.109 158.895 296.611C158.895 295.112 157.68 293.897 156.181 293.897C154.683 293.897 153.468 295.112 153.468 296.611C153.468 298.109 154.683 299.324 156.181 299.324Z" fill="black"/>
<path opacity="0.3" d="M183.144 264.455C182.107 264.455 181.093 264.147 180.231 263.571C179.369 262.995 178.698 262.176 178.301 261.217C177.905 260.259 177.802 259.205 178.005 258.188C178.208 257.171 178.708 256.237 179.442 255.505C180.177 254.773 181.111 254.274 182.129 254.073C183.146 253.873 184.2 253.978 185.157 254.376C186.115 254.775 186.932 255.448 187.507 256.312C188.081 257.175 188.387 258.189 188.384 259.226C188.384 259.914 188.249 260.595 187.985 261.23C187.722 261.865 187.335 262.442 186.849 262.928C186.362 263.413 185.784 263.798 185.148 264.06C184.513 264.322 183.831 264.457 183.144 264.455Z" fill="#359EA2"/>
<path d="M183.145 261.941C184.643 261.941 185.858 260.726 185.858 259.227C185.858 257.728 184.643 256.513 183.145 256.513C181.646 256.513 180.431 257.728 180.431 259.227C180.431 260.726 181.646 261.941 183.145 261.941Z" fill="#359EA2"/>
<path opacity="0.3" d="M183.144 264.455C182.107 264.455 181.093 264.147 180.231 263.571C179.369 262.995 178.698 262.176 178.301 261.217C177.905 260.259 177.802 259.205 178.005 258.188C178.208 257.171 178.708 256.237 179.442 255.505C180.177 254.773 181.111 254.274 182.129 254.073C183.146 253.873 184.2 253.978 185.157 254.376C186.115 254.775 186.932 255.448 187.507 256.312C188.081 257.175 188.387 258.189 188.384 259.226C188.384 259.914 188.249 260.595 187.985 261.23C187.722 261.865 187.335 262.442 186.849 262.928C186.362 263.413 185.784 263.798 185.148 264.06C184.513 264.322 183.831 264.457 183.144 264.455Z" fill="#359EA2"/>
<path opacity="0.2" d="M183.145 261.941C184.643 261.941 185.858 260.726 185.858 259.227C185.858 257.728 184.643 256.513 183.145 256.513C181.646 256.513 180.431 257.728 180.431 259.227C180.431 260.726 181.646 261.941 183.145 261.941Z" fill="black"/>
<path opacity="0.3" d="M190.947 302.038C189.91 302.041 188.895 301.735 188.031 301.16C187.168 300.585 186.494 299.767 186.096 298.809C185.698 297.851 185.593 296.796 185.795 295.779C185.997 294.761 186.496 293.826 187.23 293.092C187.963 292.359 188.898 291.86 189.916 291.658C190.934 291.456 191.988 291.561 192.946 291.959C193.904 292.357 194.723 293.03 195.298 293.894C195.872 294.757 196.178 295.772 196.176 296.81C196.173 298.195 195.621 299.524 194.641 300.504C193.661 301.483 192.333 302.035 190.947 302.038Z" fill="#359EA2"/>
<path d="M193.659 296.81C193.662 297.35 193.504 297.879 193.205 298.329C192.906 298.779 192.481 299.13 191.982 299.338C191.484 299.545 190.935 299.6 190.405 299.496C189.875 299.391 189.389 299.131 189.007 298.749C188.625 298.367 188.365 297.88 188.26 297.351C188.156 296.821 188.21 296.272 188.418 295.773C188.626 295.275 188.977 294.849 189.427 294.551C189.877 294.252 190.406 294.094 190.946 294.096C191.665 294.096 192.356 294.382 192.865 294.891C193.374 295.4 193.659 296.09 193.659 296.81Z" fill="#359EA2"/>
<path opacity="0.3" d="M190.947 302.038C189.91 302.041 188.895 301.735 188.031 301.16C187.168 300.585 186.494 299.767 186.096 298.809C185.698 297.851 185.593 296.796 185.795 295.779C185.997 294.761 186.496 293.826 187.23 293.092C187.963 292.359 188.898 291.86 189.916 291.658C190.934 291.456 191.988 291.561 192.946 291.959C193.904 292.357 194.723 293.03 195.298 293.894C195.872 294.757 196.178 295.772 196.176 296.81C196.173 298.195 195.621 299.524 194.641 300.504C193.661 301.483 192.333 302.035 190.947 302.038Z" fill="#359EA2"/>
<path opacity="0.2" d="M193.659 296.81C193.662 297.35 193.504 297.879 193.205 298.329C192.906 298.779 192.481 299.13 191.982 299.338C191.484 299.545 190.935 299.6 190.405 299.496C189.875 299.391 189.389 299.131 189.007 298.749C188.625 298.367 188.365 297.88 188.26 297.351C188.156 296.821 188.21 296.272 188.418 295.773C188.626 295.275 188.977 294.849 189.427 294.551C189.877 294.252 190.406 294.094 190.946 294.096C191.665 294.096 192.356 294.382 192.865 294.891C193.374 295.4 193.659 296.09 193.659 296.81Z" fill="black"/>
<path opacity="0.3" d="M208.305 294.951C207.268 294.951 206.255 294.643 205.393 294.067C204.531 293.49 203.859 292.671 203.463 291.713C203.066 290.755 202.963 289.7 203.166 288.684C203.37 287.667 203.87 286.733 204.604 286.001C205.338 285.268 206.273 284.77 207.29 284.569C208.308 284.368 209.362 284.474 210.319 284.872C211.276 285.27 212.094 285.944 212.668 286.807C213.243 287.671 213.548 288.685 213.546 289.722C213.546 290.41 213.41 291.09 213.147 291.726C212.883 292.361 212.497 292.938 212.01 293.423C211.523 293.909 210.946 294.294 210.31 294.556C209.674 294.818 208.993 294.952 208.305 294.951Z" fill="#359EA2"/>
<path d="M211.03 289.722C211.03 290.261 210.87 290.788 210.571 291.236C210.271 291.684 209.846 292.034 209.348 292.24C208.85 292.446 208.302 292.5 207.773 292.395C207.244 292.29 206.759 292.03 206.377 291.649C205.996 291.268 205.737 290.782 205.632 290.254C205.526 289.725 205.58 289.177 205.787 288.679C205.993 288.181 206.342 287.755 206.791 287.456C207.239 287.156 207.766 286.996 208.305 286.996C208.663 286.995 209.018 287.064 209.35 287.201C209.681 287.337 209.982 287.538 210.235 287.791C210.489 288.045 210.689 288.346 210.826 288.677C210.962 289.008 211.032 289.364 211.03 289.722Z" fill="#359EA2"/>
<path opacity="0.3" d="M208.305 294.951C207.268 294.951 206.255 294.643 205.393 294.067C204.531 293.49 203.859 292.671 203.463 291.713C203.066 290.755 202.963 289.7 203.166 288.684C203.37 287.667 203.87 286.733 204.604 286.001C205.338 285.268 206.273 284.77 207.29 284.569C208.308 284.368 209.362 284.474 210.319 284.872C211.276 285.27 212.094 285.944 212.668 286.807C213.243 287.671 213.548 288.685 213.546 289.722C213.546 290.41 213.41 291.09 213.147 291.726C212.883 292.361 212.497 292.938 212.01 293.423C211.523 293.909 210.946 294.294 210.31 294.556C209.674 294.818 208.993 294.952 208.305 294.951Z" fill="#359EA2"/>
<path opacity="0.2" d="M211.03 289.722C211.03 290.261 210.87 290.788 210.571 291.236C210.271 291.684 209.846 292.034 209.348 292.24C208.85 292.446 208.302 292.5 207.773 292.395C207.244 292.29 206.759 292.03 206.377 291.649C205.996 291.268 205.737 290.782 205.632 290.254C205.526 289.725 205.58 289.177 205.787 288.679C205.993 288.181 206.342 287.755 206.791 287.456C207.239 287.156 207.766 286.996 208.305 286.996C208.663 286.995 209.018 287.064 209.35 287.201C209.681 287.337 209.982 287.538 210.235 287.791C210.489 288.045 210.689 288.346 210.826 288.677C210.962 289.008 211.032 289.364 211.03 289.722Z" fill="black"/>
<path opacity="0.3" d="M218.716 362.619C217.679 362.621 216.664 362.316 215.801 361.742C214.938 361.167 214.264 360.35 213.866 359.392C213.467 358.435 213.362 357.381 213.563 356.363C213.764 355.346 214.262 354.411 214.994 353.677C215.727 352.943 216.661 352.443 217.677 352.24C218.694 352.037 219.749 352.14 220.707 352.536C221.665 352.932 222.484 353.604 223.061 354.466C223.637 355.328 223.944 356.342 223.944 357.379C223.941 358.766 223.39 360.095 222.41 361.077C221.431 362.058 220.103 362.613 218.716 362.619Z" fill="#359EA2"/>
<path d="M221.442 357.414C221.444 357.954 221.286 358.483 220.987 358.933C220.689 359.383 220.263 359.734 219.765 359.942C219.266 360.15 218.717 360.205 218.188 360.1C217.658 359.995 217.171 359.735 216.789 359.353C216.407 358.971 216.148 358.485 216.043 357.955C215.938 357.425 215.993 356.876 216.201 356.378C216.408 355.879 216.76 355.454 217.21 355.155C217.66 354.857 218.188 354.698 218.728 354.701C219.448 354.701 220.138 354.987 220.647 355.496C221.156 356.004 221.442 356.695 221.442 357.414Z" fill="#359EA2"/>
<path opacity="0.3" d="M218.716 362.619C217.679 362.621 216.664 362.316 215.801 361.742C214.938 361.167 214.264 360.35 213.866 359.392C213.467 358.435 213.362 357.381 213.563 356.363C213.764 355.346 214.262 354.411 214.994 353.677C215.727 352.943 216.661 352.443 217.677 352.24C218.694 352.037 219.749 352.14 220.707 352.536C221.665 352.932 222.484 353.604 223.061 354.466C223.637 355.328 223.944 356.342 223.944 357.379C223.941 358.766 223.39 360.095 222.41 361.077C221.431 362.058 220.103 362.613 218.716 362.619Z" fill="#359EA2"/>
<path opacity="0.2" d="M221.442 357.414C221.444 357.954 221.286 358.483 220.987 358.933C220.689 359.383 220.263 359.734 219.765 359.942C219.266 360.15 218.717 360.205 218.188 360.1C217.658 359.995 217.171 359.735 216.789 359.353C216.407 358.971 216.148 358.485 216.043 357.955C215.938 357.425 215.993 356.876 216.201 356.378C216.408 355.879 216.76 355.454 217.21 355.155C217.66 354.857 218.188 354.698 218.728 354.701C219.448 354.701 220.138 354.987 220.647 355.496C221.156 356.004 221.442 356.695 221.442 357.414Z" fill="black"/>
<path opacity="0.3" d="M241.714 320.334C240.677 320.336 239.663 320.031 238.799 319.456C237.936 318.882 237.262 318.064 236.864 317.107C236.466 316.149 236.36 315.095 236.561 314.078C236.762 313.061 237.26 312.126 237.992 311.392C238.725 310.658 239.659 310.158 240.675 309.954C241.692 309.751 242.747 309.854 243.705 310.251C244.663 310.647 245.482 311.319 246.059 312.181C246.635 313.043 246.943 314.056 246.943 315.093C246.939 316.48 246.388 317.809 245.408 318.791C244.429 319.773 243.101 320.327 241.714 320.334Z" fill="#359EA2"/>
<path d="M241.714 317.806C243.212 317.806 244.427 316.591 244.427 315.092C244.427 313.594 243.212 312.379 241.714 312.379C240.215 312.379 239 313.594 239 315.092C239 316.591 240.215 317.806 241.714 317.806Z" fill="#359EA2"/>
<path opacity="0.3" d="M241.714 320.334C240.677 320.336 239.663 320.031 238.799 319.456C237.936 318.882 237.262 318.064 236.864 317.107C236.466 316.149 236.36 315.095 236.561 314.078C236.762 313.061 237.26 312.126 237.992 311.392C238.725 310.658 239.659 310.158 240.675 309.954C241.692 309.751 242.747 309.854 243.705 310.251C244.663 310.647 245.482 311.319 246.059 312.181C246.635 313.043 246.943 314.056 246.943 315.093C246.939 316.48 246.388 317.809 245.408 318.791C244.429 319.773 243.101 320.327 241.714 320.334Z" fill="#359EA2"/>
<path opacity="0.2" d="M241.714 317.806C243.212 317.806 244.427 316.591 244.427 315.092C244.427 313.594 243.212 312.379 241.714 312.379C240.215 312.379 239 313.594 239 315.092C239 316.591 240.215 317.806 241.714 317.806Z" fill="black"/>
<path opacity="0.3" d="M264.581 356.83C263.544 356.83 262.531 356.522 261.669 355.946C260.807 355.369 260.135 354.55 259.739 353.592C259.342 352.634 259.239 351.579 259.443 350.563C259.646 349.546 260.146 348.612 260.88 347.88C261.614 347.147 262.549 346.649 263.566 346.448C264.584 346.247 265.638 346.353 266.595 346.751C267.552 347.15 268.37 347.823 268.944 348.686C269.519 349.55 269.824 350.564 269.822 351.601C269.819 352.989 269.265 354.319 268.283 355.299C267.3 356.279 265.969 356.83 264.581 356.83Z" fill="#359EA2"/>
<path d="M267.295 351.6C267.295 352.136 267.136 352.661 266.838 353.107C266.54 353.554 266.116 353.902 265.62 354.107C265.124 354.312 264.578 354.366 264.052 354.261C263.525 354.157 263.042 353.898 262.662 353.519C262.283 353.139 262.024 352.656 261.92 352.129C261.815 351.603 261.869 351.057 262.074 350.561C262.28 350.065 262.627 349.642 263.074 349.343C263.52 349.045 264.045 348.886 264.581 348.886C265.301 348.886 265.991 349.172 266.5 349.681C267.009 350.19 267.295 350.88 267.295 351.6Z" fill="#359EA2"/>
<path opacity="0.3" d="M264.581 356.83C263.544 356.83 262.531 356.522 261.669 355.946C260.807 355.369 260.135 354.55 259.739 353.592C259.342 352.634 259.239 351.579 259.443 350.563C259.646 349.546 260.146 348.612 260.88 347.88C261.614 347.147 262.549 346.649 263.566 346.448C264.584 346.247 265.638 346.353 266.595 346.751C267.552 347.15 268.37 347.823 268.944 348.686C269.519 349.55 269.824 350.564 269.822 351.601C269.819 352.989 269.265 354.319 268.283 355.299C267.3 356.279 265.969 356.83 264.581 356.83Z" fill="#359EA2"/>
<path opacity="0.2" d="M267.295 351.6C267.295 352.136 267.136 352.661 266.838 353.107C266.54 353.554 266.116 353.902 265.62 354.107C265.124 354.312 264.578 354.366 264.052 354.261C263.525 354.157 263.042 353.898 262.662 353.519C262.283 353.139 262.024 352.656 261.92 352.129C261.815 351.603 261.869 351.057 262.074 350.561C262.28 350.065 262.627 349.642 263.074 349.343C263.52 349.045 264.045 348.886 264.581 348.886C265.301 348.886 265.991 349.172 266.5 349.681C267.009 350.19 267.295 350.88 267.295 351.6Z" fill="black"/>
<path d="M297.685 352.162C297.601 352.163 297.517 352.147 297.438 352.114C297.36 352.082 297.289 352.035 297.229 351.975L267.728 321.21C267.611 321.092 267.545 320.932 267.545 320.766C267.545 320.599 267.611 320.44 267.728 320.321C267.786 320.262 267.855 320.215 267.932 320.183C268.008 320.15 268.09 320.134 268.173 320.134C268.256 320.134 268.338 320.15 268.414 320.183C268.49 320.215 268.56 320.262 268.617 320.321L297.288 350.208L308.178 297.687C308.199 297.578 308.249 297.477 308.323 297.394C308.397 297.312 308.493 297.251 308.599 297.219C308.705 297.184 308.817 297.177 308.926 297.2C309.035 297.223 309.136 297.274 309.219 297.348L345.925 330.65L357.623 263.975C357.64 263.858 357.691 263.749 357.771 263.662C357.85 263.575 357.953 263.513 358.067 263.484C358.18 263.45 358.3 263.449 358.414 263.48C358.528 263.511 358.63 263.573 358.711 263.659L389.884 298.026C389.949 298.085 390.001 298.157 390.037 298.237C390.073 298.317 390.092 298.404 390.092 298.491C390.093 298.579 390.075 298.666 390.04 298.746C390.005 298.827 389.954 298.899 389.889 298.959C389.825 299.018 389.749 299.064 389.666 299.092C389.583 299.121 389.495 299.132 389.407 299.124C389.32 299.117 389.235 299.091 389.158 299.049C389.081 299.007 389.014 298.95 388.96 298.88L358.664 265.531L346.966 332.042C346.944 332.153 346.893 332.256 346.819 332.342C346.746 332.428 346.651 332.494 346.545 332.533C346.438 332.568 346.323 332.575 346.213 332.552C346.102 332.53 345.999 332.479 345.914 332.405L309.172 299.067L298.27 351.706C298.248 351.819 298.195 351.924 298.116 352.009C298.038 352.093 297.937 352.155 297.826 352.185C297.778 352.185 297.731 352.177 297.685 352.162Z" fill="#359EA2"/>
<path opacity="0.3" d="M268.185 325.761C267.148 325.761 266.134 325.454 265.272 324.877C264.41 324.301 263.738 323.482 263.342 322.524C262.946 321.566 262.843 320.511 263.046 319.494C263.249 318.478 263.749 317.544 264.483 316.811C265.217 316.079 266.152 315.581 267.17 315.38C268.187 315.179 269.241 315.284 270.198 315.683C271.156 316.081 271.973 316.755 272.548 317.618C273.122 318.481 273.428 319.496 273.425 320.533C273.425 321.22 273.29 321.901 273.026 322.536C272.763 323.172 272.376 323.748 271.89 324.234C271.403 324.72 270.825 325.105 270.189 325.367C269.554 325.629 268.872 325.763 268.185 325.761Z" fill="#359EA2"/>
<path d="M270.899 320.509C270.896 321.045 270.735 321.569 270.435 322.014C270.136 322.458 269.711 322.804 269.215 323.008C268.719 323.212 268.174 323.264 267.648 323.158C267.123 323.052 266.64 322.792 266.262 322.412C265.883 322.032 265.626 321.549 265.522 321.022C265.418 320.496 265.473 319.951 265.679 319.456C265.884 318.961 266.232 318.538 266.678 318.24C267.124 317.942 267.648 317.784 268.185 317.784C268.542 317.784 268.896 317.854 269.226 317.991C269.556 318.128 269.856 318.329 270.108 318.583C270.36 318.836 270.56 319.136 270.695 319.467C270.831 319.798 270.9 320.152 270.899 320.509Z" fill="#359EA2"/>
<path opacity="0.3" d="M268.185 325.761C267.148 325.761 266.134 325.454 265.272 324.877C264.41 324.301 263.738 323.482 263.342 322.524C262.946 321.566 262.843 320.511 263.046 319.494C263.249 318.478 263.749 317.544 264.483 316.811C265.217 316.079 266.152 315.581 267.17 315.38C268.187 315.179 269.241 315.284 270.198 315.683C271.156 316.081 271.973 316.755 272.548 317.618C273.122 318.481 273.428 319.496 273.425 320.533C273.425 321.22 273.29 321.901 273.026 322.536C272.763 323.172 272.376 323.748 271.89 324.234C271.403 324.72 270.825 325.105 270.189 325.367C269.554 325.629 268.872 325.763 268.185 325.761Z" fill="#359EA2"/>
<path opacity="0.2" d="M270.899 320.509C270.896 321.045 270.735 321.569 270.435 322.014C270.136 322.458 269.711 322.804 269.215 323.008C268.719 323.212 268.174 323.264 267.648 323.158C267.123 323.052 266.64 322.792 266.262 322.412C265.883 322.032 265.626 321.549 265.522 321.022C265.418 320.496 265.473 319.951 265.679 319.456C265.884 318.961 266.232 318.538 266.678 318.24C267.124 317.942 267.648 317.784 268.185 317.784C268.542 317.784 268.896 317.854 269.226 317.991C269.556 318.128 269.856 318.329 270.108 318.583C270.36 318.836 270.56 319.136 270.695 319.467C270.831 319.798 270.9 320.152 270.899 320.509Z" fill="black"/>
<path opacity="0.3" d="M297.685 356.771C296.648 356.771 295.634 356.463 294.772 355.887C293.91 355.311 293.239 354.492 292.842 353.533C292.446 352.575 292.343 351.521 292.546 350.504C292.749 349.487 293.25 348.553 293.984 347.821C294.718 347.088 295.653 346.59 296.67 346.389C297.687 346.189 298.741 346.294 299.699 346.692C300.656 347.091 301.474 347.764 302.048 348.628C302.622 349.491 302.928 350.505 302.925 351.542C302.925 352.23 302.79 352.911 302.526 353.546C302.263 354.181 301.877 354.758 301.39 355.244C300.903 355.729 300.325 356.114 299.69 356.376C299.054 356.638 298.373 356.773 297.685 356.771Z" fill="#359EA2"/>
<path d="M297.685 354.256C299.184 354.256 300.399 353.041 300.399 351.542C300.399 350.043 299.184 348.828 297.685 348.828C296.186 348.828 294.971 350.043 294.971 351.542C294.971 353.041 296.186 354.256 297.685 354.256Z" fill="#359EA2"/>
<path opacity="0.3" d="M297.685 356.771C296.648 356.771 295.634 356.463 294.772 355.887C293.91 355.311 293.239 354.492 292.842 353.533C292.446 352.575 292.343 351.521 292.546 350.504C292.749 349.487 293.25 348.553 293.984 347.821C294.718 347.088 295.653 346.59 296.67 346.389C297.687 346.189 298.741 346.294 299.699 346.692C300.656 347.091 301.474 347.764 302.048 348.628C302.622 349.491 302.928 350.505 302.925 351.542C302.925 352.23 302.79 352.911 302.526 353.546C302.263 354.181 301.877 354.758 301.39 355.244C300.903 355.729 300.325 356.114 299.69 356.376C299.054 356.638 298.373 356.773 297.685 356.771Z" fill="#359EA2"/>
<path opacity="0.2" d="M297.685 354.256C299.184 354.256 300.399 353.041 300.399 351.542C300.399 350.043 299.184 348.828 297.685 348.828C296.186 348.828 294.971 350.043 294.971 351.542C294.971 353.041 296.186 354.256 297.685 354.256Z" fill="black"/>
<path opacity="0.3" d="M308.423 303.734C307.387 303.734 306.374 303.427 305.512 302.851C304.65 302.275 303.979 301.457 303.582 300.499C303.185 299.542 303.081 298.488 303.284 297.471C303.486 296.455 303.985 295.521 304.718 294.788C305.451 294.055 306.385 293.556 307.401 293.354C308.418 293.152 309.471 293.256 310.429 293.652C311.386 294.049 312.205 294.721 312.781 295.582C313.357 296.444 313.664 297.457 313.664 298.494C313.664 299.884 313.112 301.217 312.129 302.199C311.146 303.182 309.813 303.734 308.423 303.734Z" fill="#359EA2"/>
<path d="M308.423 301.208C309.922 301.208 311.137 299.993 311.137 298.495C311.137 296.996 309.922 295.781 308.423 295.781C306.924 295.781 305.709 296.996 305.709 298.495C305.709 299.993 306.924 301.208 308.423 301.208Z" fill="#359EA2"/>
<path opacity="0.3" d="M308.423 303.734C307.387 303.734 306.374 303.427 305.512 302.851C304.65 302.275 303.979 301.457 303.582 300.499C303.185 299.542 303.081 298.488 303.284 297.471C303.486 296.455 303.985 295.521 304.718 294.788C305.451 294.055 306.385 293.556 307.401 293.354C308.418 293.152 309.471 293.256 310.429 293.652C311.386 294.049 312.205 294.721 312.781 295.582C313.357 296.444 313.664 297.457 313.664 298.494C313.664 299.884 313.112 301.217 312.129 302.199C311.146 303.182 309.813 303.734 308.423 303.734Z" fill="#359EA2"/>
<path opacity="0.2" d="M308.423 301.208C309.922 301.208 311.137 299.993 311.137 298.495C311.137 296.996 309.922 295.781 308.423 295.781C306.924 295.781 305.709 296.996 305.709 298.495C305.709 299.993 306.924 301.208 308.423 301.208Z" fill="black"/>
<path opacity="0.3" d="M346.58 337.026C345.543 337.026 344.53 336.718 343.668 336.142C342.805 335.566 342.134 334.747 341.738 333.788C341.341 332.83 341.238 331.776 341.441 330.759C341.644 329.742 342.145 328.808 342.879 328.076C343.613 327.343 344.548 326.845 345.565 326.644C346.582 326.443 347.636 326.549 348.594 326.947C349.551 327.346 350.369 328.019 350.943 328.883C351.518 329.746 351.823 330.76 351.821 331.797C351.817 333.185 351.264 334.515 350.282 335.495C349.299 336.475 347.968 337.026 346.58 337.026Z" fill="#359EA2"/>
<path d="M346.581 334.511C348.08 334.511 349.295 333.296 349.295 331.797C349.295 330.298 348.08 329.083 346.581 329.083C345.082 329.083 343.867 330.298 343.867 331.797C343.867 333.296 345.082 334.511 346.581 334.511Z" fill="#359EA2"/>
<path opacity="0.3" d="M346.58 337.026C345.543 337.026 344.53 336.718 343.668 336.142C342.805 335.566 342.134 334.747 341.738 333.788C341.341 332.83 341.238 331.776 341.441 330.759C341.644 329.742 342.145 328.808 342.879 328.076C343.613 327.343 344.548 326.845 345.565 326.644C346.582 326.443 347.636 326.549 348.594 326.947C349.551 327.346 350.369 328.019 350.943 328.883C351.518 329.746 351.823 330.76 351.821 331.797C351.817 333.185 351.264 334.515 350.282 335.495C349.299 336.475 347.968 337.026 346.58 337.026Z" fill="#359EA2"/>
<path opacity="0.2" d="M346.581 334.511C348.08 334.511 349.295 333.296 349.295 331.797C349.295 330.298 348.08 329.083 346.581 329.083C345.082 329.083 343.867 330.298 343.867 331.797C343.867 333.296 345.082 334.511 346.581 334.511Z" fill="black"/>
<path opacity="0.3" d="M357.915 270.444C356.879 270.444 355.866 270.137 355.004 269.561C354.142 268.985 353.471 268.167 353.074 267.209C352.677 266.251 352.574 265.198 352.776 264.181C352.978 263.165 353.477 262.231 354.21 261.498C354.943 260.765 355.877 260.266 356.893 260.064C357.91 259.862 358.963 259.965 359.921 260.362C360.878 260.759 361.697 261.43 362.273 262.292C362.849 263.154 363.156 264.167 363.156 265.204C363.156 266.593 362.604 267.926 361.621 268.909C360.638 269.892 359.305 270.444 357.915 270.444Z" fill="#359EA2"/>
<path d="M360.618 265.204C360.62 265.744 360.461 266.273 360.162 266.723C359.863 267.174 359.437 267.525 358.938 267.732C358.439 267.94 357.889 267.994 357.359 267.888C356.829 267.782 356.342 267.521 355.961 267.138C355.579 266.755 355.32 266.267 355.217 265.737C355.114 265.206 355.17 264.657 355.38 264.159C355.589 263.66 355.942 263.236 356.394 262.939C356.845 262.641 357.375 262.485 357.915 262.49C358.632 262.496 359.318 262.784 359.823 263.292C360.329 263.8 360.615 264.487 360.618 265.204Z" fill="#359EA2"/>
<path opacity="0.3" d="M357.915 270.444C356.879 270.444 355.866 270.137 355.004 269.561C354.142 268.985 353.471 268.167 353.074 267.209C352.677 266.251 352.574 265.198 352.776 264.181C352.978 263.165 353.477 262.231 354.21 261.498C354.943 260.765 355.877 260.266 356.893 260.064C357.91 259.862 358.963 259.965 359.921 260.362C360.878 260.759 361.697 261.43 362.273 262.292C362.849 263.154 363.156 264.167 363.156 265.204C363.156 266.593 362.604 267.926 361.621 268.909C360.638 269.892 359.305 270.444 357.915 270.444Z" fill="#359EA2"/>
<path opacity="0.2" d="M360.618 265.204C360.62 265.744 360.461 266.273 360.162 266.723C359.863 267.174 359.437 267.525 358.938 267.732C358.439 267.94 357.889 267.994 357.359 267.888C356.829 267.782 356.342 267.521 355.961 267.138C355.579 266.755 355.32 266.267 355.217 265.737C355.114 265.206 355.17 264.657 355.38 264.159C355.589 263.66 355.942 263.236 356.394 262.939C356.845 262.641 357.375 262.485 357.915 262.49C358.632 262.496 359.318 262.784 359.823 263.292C360.329 263.8 360.615 264.487 360.618 265.204Z" fill="black"/>
<path opacity="0.3" d="M389.955 303.734C388.918 303.734 387.905 303.427 387.043 302.851C386.181 302.275 385.51 301.457 385.113 300.499C384.716 299.542 384.613 298.488 384.815 297.471C385.017 296.455 385.516 295.521 386.249 294.788C386.982 294.055 387.916 293.556 388.932 293.354C389.949 293.152 391.002 293.256 391.96 293.652C392.918 294.049 393.736 294.721 394.312 295.582C394.888 296.444 395.195 297.457 395.195 298.494C395.195 299.182 395.059 299.863 394.796 300.499C394.533 301.135 394.147 301.713 393.66 302.199C393.173 302.686 392.596 303.072 391.96 303.335C391.324 303.599 390.643 303.734 389.955 303.734Z" fill="#359EA2"/>
<path d="M389.954 301.208C391.452 301.208 392.667 299.993 392.667 298.495C392.667 296.996 391.452 295.781 389.954 295.781C388.455 295.781 387.24 296.996 387.24 298.495C387.24 299.993 388.455 301.208 389.954 301.208Z" fill="#359EA2"/>
<path opacity="0.3" d="M389.955 303.734C388.918 303.734 387.905 303.427 387.043 302.851C386.181 302.275 385.51 301.457 385.113 300.499C384.716 299.542 384.613 298.488 384.815 297.471C385.017 296.455 385.516 295.521 386.249 294.788C386.982 294.055 387.916 293.556 388.932 293.354C389.949 293.152 391.002 293.256 391.96 293.652C392.918 294.049 393.736 294.721 394.312 295.582C394.888 296.444 395.195 297.457 395.195 298.494C395.195 299.182 395.059 299.863 394.796 300.499C394.533 301.135 394.147 301.713 393.66 302.199C393.173 302.686 392.596 303.072 391.96 303.335C391.324 303.599 390.643 303.734 389.955 303.734Z" fill="#359EA2"/>
<path opacity="0.2" d="M389.954 301.208C391.452 301.208 392.667 299.993 392.667 298.495C392.667 296.996 391.452 295.781 389.954 295.781C388.455 295.781 387.24 296.996 387.24 298.495C387.24 299.993 388.455 301.208 389.954 301.208Z" fill="black"/>
<path opacity="0.2" d="M389.955 293.265C388.749 293.258 387.578 293.672 386.644 294.435L381.965 289.276L386.562 266.022C386.788 266.034 387.015 266.034 387.241 266.022C390.06 266.03 392.773 264.95 394.816 263.008C396.858 261.065 398.073 258.41 398.208 255.594C398.342 252.779 397.385 250.02 395.536 247.892C393.687 245.764 391.089 244.431 388.282 244.171C390.478 243.026 392.222 241.17 393.227 238.907C394.233 236.643 394.441 234.105 393.817 231.708C393.194 229.311 391.777 227.195 389.796 225.708C387.816 224.22 385.389 223.448 382.913 223.518C380.437 223.588 378.058 224.495 376.164 226.091C374.27 227.688 372.974 229.879 372.486 232.308C371.999 234.736 372.349 237.258 373.48 239.462C374.611 241.666 376.456 243.421 378.713 244.44L368.934 274.854L363.577 269.005L361.004 241.89L372.292 221.806C372.813 222.097 373.416 222.207 374.006 222.121C374.597 222.034 375.143 221.755 375.559 221.327C375.975 220.899 376.238 220.346 376.308 219.753C376.378 219.16 376.251 218.561 375.945 218.048C375.64 217.535 375.174 217.137 374.62 216.915C374.065 216.694 373.453 216.662 372.879 216.823C372.304 216.985 371.799 217.331 371.441 217.809C371.083 218.287 370.893 218.869 370.9 219.466C370.9 219.991 371.054 220.503 371.344 220.94L360.816 239.656L358.29 213.08C360.802 212.472 363.02 210.998 364.552 208.915C366.083 206.833 366.83 204.277 366.662 201.697C366.493 199.118 365.418 196.681 363.628 194.816C361.838 192.951 359.447 191.778 356.877 191.504C354.306 191.23 351.722 191.872 349.579 193.317C347.435 194.762 345.871 196.918 345.162 199.404C344.452 201.889 344.644 204.546 345.701 206.904C346.759 209.263 348.616 211.172 350.944 212.296L346.031 226.333C345.298 218.053 343.327 209.93 340.182 202.236L339.41 194.925C339.821 194.689 340.163 194.348 340.399 193.937C340.635 193.526 340.758 193.06 340.755 192.586C340.741 191.902 340.468 191.248 339.992 190.757C339.516 190.265 338.872 189.971 338.189 189.934C337.506 189.897 336.834 190.12 336.307 190.557C335.781 190.995 335.44 191.615 335.351 192.293C333.825 189.63 332.154 187.053 330.345 184.573C331.592 183.714 332.639 182.596 333.415 181.295C334.191 179.994 334.677 178.541 334.84 177.036C335.003 175.53 334.839 174.007 334.36 172.57C333.88 171.133 333.097 169.817 332.062 168.711C331.027 167.605 329.766 166.735 328.365 166.161C326.963 165.587 325.454 165.322 323.941 165.384C322.428 165.446 320.946 165.834 319.596 166.521C318.246 167.209 317.061 168.179 316.121 169.366C300.816 156.612 281.449 149.761 261.529 150.054H261.33C253.126 150.155 244.983 151.467 237.163 153.949C237.146 152.125 236.674 150.335 235.789 148.74C234.904 147.145 233.635 145.796 232.096 144.816C230.558 143.836 228.799 143.256 226.98 143.129C225.16 143.002 223.337 143.331 221.677 144.087C220.018 144.843 218.573 146.001 217.474 147.457C216.376 148.914 215.659 150.621 215.388 152.425C215.117 154.229 215.301 156.071 215.923 157.786C216.545 159.5 217.586 161.032 218.95 162.243C210.363 167.477 202.788 174.212 196.585 182.128C196.585 182.128 196.585 182.046 196.585 182C196.59 181.042 196.332 180.102 195.84 179.281C195.348 178.46 194.641 177.789 193.795 177.341C192.949 176.894 191.996 176.687 191.04 176.742C190.085 176.798 189.162 177.114 188.374 177.657C187.585 178.199 186.96 178.948 186.567 179.82C186.174 180.693 186.027 181.657 186.142 182.607C186.258 183.557 186.632 184.458 187.223 185.21C187.814 185.963 188.601 186.54 189.496 186.877L185.695 200.329C183.554 205.227 181.889 210.32 180.723 215.536L176.36 208.307C178.118 206.697 179.302 204.557 179.733 202.213C180.164 199.869 179.818 197.448 178.748 195.318C177.678 193.188 175.942 191.465 173.804 190.412C171.666 189.358 169.242 189.031 166.901 189.481C164.56 189.93 162.43 191.131 160.834 192.901C159.238 194.671 158.263 196.914 158.057 199.289C157.851 201.663 158.426 204.04 159.694 206.059C160.963 208.077 162.855 209.626 165.084 210.471L159.06 238.498L154.673 228.859C155.481 228.417 156.158 227.769 156.634 226.981C157.111 226.193 157.37 225.293 157.386 224.372C157.402 223.451 157.174 222.542 156.725 221.738C156.275 220.934 155.621 220.263 154.829 219.794C154.037 219.324 153.134 219.073 152.213 219.065C151.292 219.058 150.385 219.294 149.585 219.75C148.785 220.207 148.12 220.867 147.658 221.663C147.195 222.46 146.952 223.365 146.953 224.286C146.96 224.497 146.98 224.708 147.011 224.917C146.357 224.786 145.691 224.719 145.023 224.718C142.169 224.739 139.436 225.873 137.406 227.879C135.376 229.884 134.21 232.603 134.155 235.456C134.1 238.31 135.161 241.071 137.112 243.154C139.064 245.236 141.751 246.474 144.602 246.604L147.093 278.948C144.459 279.481 142.113 280.965 140.502 283.116C138.891 285.268 138.128 287.937 138.357 290.615C138.587 293.293 139.794 295.792 141.748 297.638C143.702 299.484 146.266 300.546 148.953 300.623C150.101 300.619 151.241 300.438 152.334 300.085C152.811 300.605 153.389 301.024 154.033 301.314C154.676 301.605 155.372 301.762 156.078 301.776C156.785 301.789 157.486 301.659 158.141 301.394C158.795 301.128 159.389 300.733 159.886 300.231C160.383 299.729 160.773 299.132 161.032 298.475C161.291 297.818 161.415 297.115 161.394 296.409C161.374 295.703 161.21 295.008 160.914 294.368C160.617 293.727 160.193 293.153 159.668 292.68L164.242 286.364L175.085 313.373C173.386 314.296 171.962 315.653 170.958 317.305C169.954 318.958 169.405 320.846 169.367 322.78C169.33 324.713 169.805 326.621 170.744 328.311C171.683 330.002 173.053 331.413 174.715 332.401C176.376 333.39 178.27 333.921 180.204 333.941C182.137 333.96 184.041 333.467 185.722 332.512C187.403 331.557 188.802 330.174 189.775 328.503C190.748 326.832 191.261 324.934 191.263 323C191.263 321.41 190.912 319.841 190.233 318.403L210.236 306.156L217.102 352.419C215.99 352.782 215.032 353.507 214.381 354.478C213.73 355.449 213.423 356.611 213.509 357.777C213.596 358.943 214.071 360.047 214.859 360.911C215.646 361.776 216.701 362.351 217.854 362.546C219.007 362.74 220.192 362.543 221.22 361.984C222.247 361.426 223.058 360.54 223.523 359.466C223.987 358.393 224.078 357.195 223.782 356.064C223.485 354.933 222.818 353.933 221.886 353.226L233.443 331.001C233.824 331.855 234.156 332.73 234.438 333.621C230.624 337.961 229.829 342.886 232.098 347.459C231.578 350.028 231.962 352.698 233.186 355.016C232.757 357.338 233.098 359.736 234.157 361.847C233.742 364.164 234.104 366.553 235.186 368.643C234.262 373.708 237.187 378.914 243.959 382.68C245.277 383.324 246.628 383.898 248.007 384.4C248.756 388.5 250.941 392.2 254.17 394.837C257.399 397.474 261.461 398.874 265.628 398.789C269.796 398.703 273.797 397.136 276.915 394.368C280.032 391.601 282.063 387.814 282.643 383.686C283.812 383.171 285.041 382.633 286.21 382.013C292.854 378.048 295.568 372.761 294.516 367.731C295.482 365.717 295.797 363.452 295.416 361.251C296.086 359.781 296.437 358.186 296.446 356.572C296.858 356.683 297.282 356.742 297.709 356.747C298.946 356.743 300.141 356.301 301.082 355.499C302.024 354.697 302.65 353.587 302.851 352.366C303.052 351.146 302.813 349.894 302.178 348.833C301.543 347.772 300.552 346.97 299.382 346.57L304.891 319.97L321.267 334.721C319.869 336.541 319.078 338.754 319.007 341.049C318.935 343.343 319.586 345.601 320.868 347.505C322.149 349.409 323.997 350.862 326.15 351.659C328.302 352.455 330.65 352.556 332.863 351.945C335.075 351.334 337.04 350.044 338.479 348.256C339.918 346.468 340.759 344.273 340.883 341.981C341.007 339.689 340.407 337.416 339.169 335.484C337.931 333.551 336.116 332.057 333.983 331.212L335.585 323.023L342.182 329.012C341.625 329.851 341.328 330.836 341.329 331.843C341.324 332.823 341.594 333.784 342.109 334.618C342.623 335.451 343.361 336.124 344.238 336.56C345.115 336.996 346.097 337.177 347.072 337.083C348.047 336.989 348.977 336.623 349.754 336.028C350.532 335.432 351.128 334.631 351.473 333.714C351.818 332.797 351.9 331.802 351.708 330.841C351.516 329.881 351.059 328.993 350.389 328.279C349.718 327.565 348.861 327.053 347.914 326.802L353.353 295.745L366.922 308.612C365.597 310.513 364.908 312.785 364.956 315.102C365.004 317.418 365.785 319.66 367.188 321.505C368.591 323.349 370.543 324.701 372.763 325.365C374.983 326.03 377.356 325.973 379.542 325.202C381.727 324.432 383.612 322.988 384.925 321.079C386.237 319.169 386.911 316.893 386.847 314.576C386.784 312.26 385.987 310.023 384.571 308.189C383.156 306.354 381.195 305.016 378.971 304.366L381.638 290.856L385.744 295.382C385.043 296.329 384.682 297.483 384.72 298.66C384.757 299.836 385.19 300.966 385.949 301.866C386.708 302.765 387.749 303.383 388.902 303.617C390.055 303.852 391.254 303.691 392.305 303.16C393.355 302.629 394.196 301.759 394.691 300.691C395.185 299.623 395.305 298.419 395.03 297.274C394.756 296.13 394.103 295.111 393.177 294.384C392.252 293.656 391.108 293.262 389.931 293.265H389.955ZM382.176 245.458C381.69 245.714 381.225 246.008 380.784 246.335L381.111 245.306C381.462 245.364 381.813 245.423 382.176 245.458ZM376.842 258.582C377.4 260.244 378.348 261.748 379.605 262.968C380.863 264.189 382.394 265.092 384.071 265.601L379.86 286.96L370.888 277.076L376.842 258.582ZM368.443 276.339L365.191 286.446L363.764 271.145L368.443 276.339ZM360.255 260.548C359.603 260.218 358.889 260.029 358.159 259.993C357.429 259.957 356.7 260.074 356.018 260.338C355.336 260.602 354.718 261.006 354.203 261.524C353.687 262.042 353.286 262.662 353.026 263.345C352.766 264.028 352.652 264.758 352.692 265.488C352.731 266.217 352.924 266.93 353.257 267.581C353.59 268.231 354.056 268.805 354.625 269.264C355.194 269.722 355.852 270.057 356.559 270.245L352.804 291.674L351.575 290.505C352.412 288.935 352.85 287.183 352.85 285.405C352.849 283.598 352.401 281.82 351.546 280.229C350.692 278.637 349.457 277.282 347.952 276.283C346.447 275.284 344.718 274.672 342.92 274.502C341.122 274.333 339.309 274.61 337.644 275.31C340.778 268.795 343.074 261.909 344.475 254.816L345.738 266.747C345.751 266.879 345.805 267.004 345.893 267.103C345.982 267.202 346.1 267.27 346.23 267.297H346.358C346.47 267.299 346.58 267.27 346.677 267.215C346.773 267.159 346.853 267.078 346.908 266.981L358.84 245.774L360.255 260.548ZM190.947 291.569C190.747 291.577 190.548 291.597 190.35 291.628L186.63 273.228C189.833 280.288 193.934 286.904 198.831 292.914L195.485 294.341C195.047 293.515 194.394 292.821 193.596 292.334C192.797 291.846 191.882 291.582 190.947 291.569ZM168.979 266.548C170.175 266.552 171.336 266.145 172.268 265.396C173.2 264.647 173.847 263.601 174.102 262.432C174.356 261.264 174.203 260.044 173.666 258.975C173.13 257.906 172.244 257.053 171.155 256.559L178.852 229.304C178.746 231.211 178.688 233.129 178.711 235.071V235.457C178.792 241.891 179.457 248.304 180.7 254.617C179.96 255.004 179.325 255.563 178.848 256.247C178.37 256.931 178.064 257.721 177.956 258.548C177.849 259.375 177.942 260.217 178.228 261C178.514 261.784 178.985 262.488 179.6 263.051L165.435 282.621L156.72 260.852L160.311 244.347L166.078 256.98C165.154 257.611 164.456 258.521 164.086 259.578C163.717 260.634 163.695 261.781 164.025 262.851C164.354 263.92 165.017 264.856 165.917 265.522C166.817 266.187 167.907 266.547 169.026 266.548H168.979ZM331.011 286.726C331.262 288.762 332.079 290.686 333.37 292.281C334.66 293.875 336.372 295.075 338.311 295.745L333.632 319.561L316.53 304.039C321.846 298.695 326.691 292.903 331.011 286.726ZM355.67 213.489H355.751L358.617 243.598L346.768 264.653L345.259 250.324C346.096 244.62 346.464 238.858 346.358 233.094L353.295 213.208C354.077 213.392 354.878 213.486 355.681 213.489H355.67ZM338.498 198.528C338.1 197.674 337.702 196.832 337.328 196.001L337.585 195.381C337.749 195.393 337.913 195.393 338.077 195.381H338.217L338.498 198.528ZM190.713 187.322C190.922 187.353 191.133 187.373 191.344 187.38C191.936 187.377 192.522 187.271 193.076 187.065C191.516 189.334 190.093 191.673 188.806 194.083L190.713 187.322ZM167.529 211.231C168.009 211.297 168.494 211.332 168.979 211.337C170.848 211.336 172.686 210.852 174.313 209.933L179.998 219.291C179.811 220.309 179.635 221.326 179.495 222.356L169.95 256.173C169.63 256.108 169.305 256.073 168.979 256.068C168.355 256.076 167.737 256.194 167.154 256.418L160.744 242.382L167.529 211.231ZM155.036 256.734L150.357 245.177C152.032 244.221 153.425 242.839 154.395 241.171C155.365 239.503 155.876 237.608 155.878 235.679C155.895 235.332 155.895 234.985 155.878 234.638L158.568 240.557L155.036 256.734ZM149.55 278.796L147.058 246.417C147.401 246.347 147.74 246.265 148.076 246.172L154.077 261.121L150.216 278.842L149.55 278.796ZM159.878 290.294C159.878 290.107 159.878 289.908 159.878 289.721C159.877 287.469 159.181 285.272 157.885 283.43C156.589 281.588 154.757 280.19 152.638 279.427L155.726 265.285L163.739 285.03L159.878 290.294ZM180.314 312.098C179.341 312.098 178.373 312.232 177.436 312.496L165.985 284.001L180.63 263.776C181.396 264.215 182.262 264.449 183.145 264.455H183.25C183.507 265.238 183.765 265.999 184.034 266.794L189.122 291.967C188.165 292.316 187.331 292.936 186.72 293.75C186.109 294.565 185.748 295.54 185.682 296.556C185.615 297.572 185.845 298.586 186.344 299.474C186.843 300.362 187.589 301.085 188.492 301.556C189.394 302.028 190.415 302.227 191.428 302.128C192.442 302.03 193.405 301.64 194.201 301.004C194.996 300.368 195.59 299.515 195.909 298.548C196.229 297.581 196.26 296.542 196 295.558L199.708 293.967C202.738 297.628 205.884 300.986 209.008 304.05L188.923 316.297C187.901 314.99 186.594 313.933 185.103 313.205C183.611 312.478 181.973 312.099 180.314 312.098ZM220.799 352.618C220.147 352.326 219.442 352.175 218.728 352.173C218.588 352.173 218.471 352.173 218.33 352.173L211.546 306.437C220.436 315.011 228.718 321.9 232.753 329.562L220.799 352.618ZM298.118 346.348C297.978 346.348 297.838 346.348 297.686 346.348C297.431 346.354 297.177 346.377 296.925 346.418C296.925 346.301 296.867 346.173 296.832 346.044C298.621 341.552 297.604 336.803 293.814 332.732C295.206 327.679 298.493 323.023 302.844 318.204L303.78 319.058L298.118 346.348ZM331.561 330.568C331.035 330.484 330.503 330.441 329.97 330.44C327.434 330.434 324.977 331.315 323.022 332.931L305.476 317.128L305.944 314.847C308.962 311.712 312.296 308.46 315.723 304.951L333.421 321L331.561 330.568ZM346.674 326.568H346.581C345.247 326.568 343.964 327.083 343.001 328.007L335.878 321.55L340.779 296.318C341.141 296.318 341.516 296.318 341.948 296.318C343.501 296.314 345.035 295.978 346.447 295.332C347.86 294.687 349.118 293.747 350.137 292.575L352.289 294.622L346.674 326.568ZM376.514 303.945H375.906C373.212 303.942 370.614 304.943 368.619 306.752L353.892 292.715L357.798 270.432H357.915C359.069 270.43 360.188 270.043 361.097 269.332L363.331 292.727C363.353 293.03 363.483 293.315 363.698 293.53C363.913 293.745 364.198 293.875 364.501 293.897H364.63C364.892 293.89 365.145 293.802 365.354 293.645C365.564 293.488 365.72 293.269 365.799 293.02L370.478 278.468L379.591 288.516L376.514 303.945Z" fill="white"/>
<path d="M304.107 443.753L269.647 463.767C268.598 464.303 267.438 464.582 266.26 464.582C265.083 464.582 263.922 464.303 262.874 463.767L228.191 443.753C227.804 443.577 227.47 443.304 227.222 442.959C226.973 442.614 226.82 442.21 226.776 441.788V449.976C226.822 450.398 226.976 450.801 227.224 451.145C227.472 451.489 227.806 451.764 228.191 451.941L262.874 471.955C263.922 472.491 265.083 472.771 266.26 472.771C267.438 472.771 268.598 472.491 269.647 471.955L304.107 451.953C304.496 451.782 304.83 451.509 305.076 451.163C305.321 450.817 305.467 450.41 305.499 449.987V441.799C305.465 442.22 305.318 442.624 305.073 442.968C304.828 443.312 304.494 443.583 304.107 443.753Z" fill="#E0E0E0"/>
<path opacity="0.2" d="M304.107 443.753L269.647 463.767C268.598 464.303 267.438 464.582 266.26 464.582C265.083 464.582 263.922 464.303 262.874 463.767L228.191 443.753C227.804 443.577 227.47 443.304 227.222 442.959C226.973 442.614 226.82 442.21 226.776 441.788V449.976C226.822 450.398 226.976 450.801 227.224 451.145C227.472 451.489 227.806 451.764 228.191 451.941L262.874 471.955C263.922 472.491 265.083 472.771 266.26 472.771C267.438 472.771 268.598 472.491 269.647 471.955L304.107 451.953C304.496 451.782 304.83 451.509 305.076 451.163C305.321 450.817 305.467 450.41 305.499 449.987V441.799C305.465 442.22 305.318 442.624 305.073 442.968C304.828 443.312 304.494 443.583 304.107 443.753Z" fill="black"/>
<path d="M228.156 443.753L262.839 463.767C263.887 464.303 265.048 464.583 266.225 464.583C267.403 464.583 268.563 464.303 269.612 463.767L304.107 443.753C304.496 443.582 304.83 443.309 305.076 442.963C305.321 442.617 305.467 442.211 305.499 441.788C305.459 441.367 305.309 440.965 305.065 440.62C304.821 440.275 304.491 440 304.107 439.823L269.366 419.797C268.316 419.266 267.156 418.99 265.98 418.99C264.803 418.99 263.643 419.266 262.593 419.797L228.133 439.823C227.744 439.993 227.41 440.266 227.164 440.612C226.919 440.958 226.773 441.365 226.741 441.788C226.785 442.21 226.938 442.614 227.187 442.959C227.435 443.304 227.769 443.577 228.156 443.753Z" fill="#E0E0E0"/>
<path opacity="0.1" d="M228.156 443.753L262.839 463.767C263.887 464.303 265.048 464.583 266.225 464.583C267.403 464.583 268.563 464.303 269.612 463.767L304.107 443.753C304.496 443.582 304.83 443.309 305.076 442.963C305.321 442.617 305.467 442.211 305.499 441.788C305.459 441.367 305.309 440.965 305.065 440.62C304.821 440.275 304.491 440 304.107 439.823L269.366 419.797C268.316 419.266 267.156 418.99 265.98 418.99C264.803 418.99 263.643 419.266 262.593 419.797L228.133 439.823C227.744 439.993 227.41 440.266 227.164 440.612C226.919 440.958 226.773 441.365 226.741 441.788C226.785 442.21 226.938 442.614 227.187 442.959C227.435 443.304 227.769 443.577 228.156 443.753Z" fill="black"/>
<path d="M290.398 438.08L268.348 450.888C267.679 451.239 266.934 451.422 266.178 451.422C265.423 451.422 264.678 451.239 264.009 450.888L241.784 438.08C241.536 437.969 241.322 437.795 241.164 437.575C241.006 437.356 240.909 437.098 240.883 436.828V442.069C240.908 442.34 241.005 442.6 241.163 442.822C241.321 443.043 241.535 443.22 241.784 443.332L264.009 456.141C264.681 456.481 265.425 456.658 266.178 456.658C266.932 456.658 267.676 456.481 268.348 456.141L290.398 443.332C290.645 443.219 290.857 443.042 291.013 442.82C291.169 442.598 291.264 442.339 291.287 442.069V436.828C291.263 437.097 291.168 437.354 291.012 437.574C290.856 437.794 290.644 437.969 290.398 438.08Z" fill="#E0E0E0"/>
<path opacity="0.2" d="M290.398 438.08L268.348 450.888C267.679 451.239 266.934 451.422 266.178 451.422C265.423 451.422 264.678 451.239 264.009 450.888L241.784 438.08C241.536 437.969 241.322 437.795 241.164 437.575C241.006 437.356 240.909 437.098 240.883 436.828V442.069C240.908 442.34 241.005 442.6 241.163 442.822C241.321 443.043 241.535 443.22 241.784 443.332L264.009 456.141C264.681 456.481 265.425 456.658 266.178 456.658C266.932 456.658 267.676 456.481 268.348 456.141L290.398 443.332C290.645 443.219 290.857 443.042 291.013 442.82C291.169 442.598 291.264 442.339 291.287 442.069V436.828C291.263 437.097 291.168 437.354 291.012 437.574C290.856 437.794 290.644 437.969 290.398 438.08Z" fill="black"/>
<path d="M241.819 438.079L264.044 450.888C264.713 451.238 265.458 451.421 266.213 451.421C266.969 451.421 267.714 451.238 268.383 450.888L290.433 438.079C290.679 437.968 290.891 437.794 291.047 437.574C291.203 437.354 291.298 437.096 291.322 436.828C291.297 436.556 291.2 436.296 291.042 436.075C290.884 435.853 290.67 435.677 290.421 435.564L268.196 422.756C267.523 422.415 266.78 422.238 266.026 422.238C265.272 422.238 264.529 422.415 263.856 422.756L241.807 435.564C241.56 435.677 241.348 435.854 241.192 436.076C241.035 436.298 240.941 436.557 240.918 436.828C240.944 437.097 241.041 437.355 241.199 437.575C241.358 437.795 241.571 437.969 241.819 438.079ZM266.02 427.049L282.982 436.839L266.184 446.607L249.223 436.816L266.02 427.049Z" fill="#E0E0E0"/>
<path d="M249.222 436.816L266.184 446.606L282.981 436.839L266.02 427.048L249.222 436.816Z" fill="white"/>
<path opacity="0.3" d="M249.223 436.817L138.004 286.353L264.581 359.158L266.184 446.607L249.223 436.817Z" fill="white"/>
<path opacity="0.3" d="M282.982 436.839L393.885 284.504L264.582 359.157L266.185 446.607L282.982 436.839Z" fill="white"/>
</svg>
