<svg width="16" height="15" viewBox="0 0 16 15" fill="none" xmlns="http://www.w3.org/2000/svg">
<path d="M8 0C6.51664 0 5.06659 0.439867 3.83323 1.26398C2.59986 2.08809 1.63856 3.25943 1.07091 4.62987C0.50325 6.00032 0.354725 7.50832 0.644114 8.96318C0.933503 10.418 1.64781 11.7544 2.6967 12.8033C3.7456 13.8522 5.08197 14.5665 6.53682 14.8559C7.99168 15.1453 9.49968 14.9967 10.8701 14.4291C12.2406 13.8614 13.4119 12.9001 14.236 11.6668C15.0601 10.4334 15.5 8.98336 15.5 7.5C15.4979 5.51152 14.707 3.60509 13.301 2.19902C11.8949 0.79295 9.98848 0.00209987 8 0ZM8 13.8462C6.74485 13.8462 5.51789 13.474 4.47427 12.7766C3.43065 12.0793 2.61725 11.0882 2.13692 9.92857C1.6566 8.76896 1.53092 7.49296 1.77579 6.26193C2.02066 5.03089 2.62507 3.90012 3.51259 3.01259C4.40012 2.12507 5.5309 1.52065 6.76193 1.27579C7.99296 1.03092 9.26896 1.15659 10.4286 1.63692C11.5882 2.11724 12.5793 2.93065 13.2766 3.97426C13.974 5.01788 14.3462 6.24485 14.3462 7.5C14.3442 9.18252 13.675 10.7956 12.4853 11.9853C11.2956 13.175 9.68252 13.8442 8 13.8462ZM5.69231 7.5C5.69231 7.98434 5.8447 8.45641 6.1279 8.84933C6.41111 9.24225 6.81076 9.5361 7.27025 9.68927C7.72973 9.84243 8.22577 9.84714 8.68808 9.70272C9.15039 9.55831 9.55555 9.27209 9.84616 8.88461C9.93806 8.76221 10.0748 8.68132 10.2264 8.65975C10.3779 8.63818 10.5318 8.67769 10.6542 8.76959C10.7766 8.86149 10.8575 8.99825 10.8791 9.14979C10.9006 9.30133 10.8611 9.45523 10.7692 9.57764C10.3332 10.1587 9.72545 10.5878 9.03202 10.8043C8.33858 11.0208 7.59461 11.0136 6.90548 10.7838C6.21635 10.5539 5.61698 10.1132 5.19227 9.52381C4.76755 8.93447 4.539 8.22644 4.539 7.5C4.539 6.77356 4.76755 6.06553 5.19227 5.47618C5.61698 4.88684 6.21635 4.44605 6.90548 4.21624C7.59461 3.98643 8.33858 3.97925 9.03202 4.19571C9.72545 4.41218 10.3332 4.84132 10.7692 5.42235C10.8147 5.48296 10.8479 5.55194 10.8667 5.62535C10.8856 5.69877 10.8898 5.77517 10.8791 5.8502C10.8684 5.92524 10.843 5.99743 10.8045 6.06267C10.7659 6.12791 10.7148 6.1849 10.6542 6.23041C10.5936 6.27591 10.5246 6.30903 10.4512 6.32788C10.3778 6.34673 10.3014 6.35093 10.2264 6.34025C10.1513 6.32957 10.0791 6.30421 10.0139 6.26563C9.94866 6.22705 9.89166 6.17599 9.84616 6.11538C9.55555 5.72791 9.15039 5.44169 8.68808 5.29728C8.22577 5.15286 7.72973 5.15757 7.27025 5.31073C6.81076 5.46389 6.41111 5.75775 6.1279 6.15067C5.8447 6.54359 5.69231 7.01565 5.69231 7.5Z" fill="white"/>
</svg>
